<?xml version="1.0" encoding="utf-8"?>
<!-- Generator: Adobe Illustrator 22.0.0, SVG Export Plug-In . SVG Version: 6.00 Build 0)  -->
<svg version="1.1" id="Layer_1" xmlns="http://www.w3.org/2000/svg" xmlns:xlink="http://www.w3.org/1999/xlink" x="0px" y="0px"
	 viewBox="0 0 935.5 637.5" style="enable-background:new 0 0 935.5 637.5;" xml:space="preserve">
<style type="text/css">
	.st0{fill:none;stroke:#000000;stroke-width:0.5;stroke-miterlimit:10;}
	.st1{fill:none;stroke:#000000;stroke-miterlimit:10;}
	.st2{fill:none;stroke:#000000;stroke-miterlimit:10;stroke-dasharray:1.9565,1.9565;}
	.st3{fill:none;stroke:#000000;stroke-miterlimit:10;stroke-dasharray:2,2;}
</style>
<g>
	<g>
		<path d="M817.5,86c6.3,0,11.5,5.2,11.5,11.5v513c0,6.3-5.2,11.5-11.5,11.5h-588c-6.3,0-11.5-5.2-11.5-11.5v-513
			c0-6.3,5.2-11.5,11.5-11.5H817.5 M817.5,85.5h-588c-6.6,0-12,5.4-12,12v513c0,6.6,5.4,12,12,12h588c6.6,0,12-5.4,12-12v-513
			C829.5,90.9,824.1,85.5,817.5,85.5L817.5,85.5z"/>
	</g>
	<g>
		<path d="M429,167v16H287v-16H429 M429.5,166.5h-143v17h143V166.5L429.5,166.5z"/>
	</g>
	<g>
		<path d="M429,207v16H287v-16H429 M429.5,206.5h-143v17h143V206.5L429.5,206.5z"/>
	</g>
	<g>
		<path d="M599,207v16H457v-16H599 M599.5,206.5h-143v17h143V206.5L599.5,206.5z"/>
	</g>
	<g>
		<path d="M761,207v16H628v-16H761 M761.5,206.5h-134v17h134V206.5L761.5,206.5z"/>
	</g>
	<g>
		<path d="M599,167v16H457v-16H599 M599.5,166.5h-143v17h143V166.5L599.5,166.5z"/>
	</g>
	<g>
		<path d="M761,231v46H287v-46H761 M761.5,230.5h-475v47h475V230.5L761.5,230.5z"/>
	</g>
	<g>
		<g>
			<g>
				<rect x="290.5" y="529.5" width="1" height="7"/>
			</g>
			<g>
				<rect x="287.5" y="532.5" width="7" height="1"/>
			</g>
		</g>
		<circle cx="298.5" cy="535.5" r="1"/>
		<circle cx="305.8" cy="535.5" r="1"/>
		<circle cx="313.2" cy="535.5" r="1"/>
		<circle cx="320.5" cy="535.5" r="1"/>
		<circle cx="327.8" cy="535.5" r="1"/>
		<circle cx="335.2" cy="535.5" r="1"/>
		<circle cx="342.5" cy="535.5" r="1"/>
	</g>
	<g>
		<g>
			<g>
				<rect x="349.5" y="529.5" width="1" height="7"/>
			</g>
			<g>
				<rect x="346.5" y="532.5" width="7" height="1"/>
			</g>
		</g>
		<circle cx="357.5" cy="535.5" r="1"/>
		<circle cx="364.8" cy="535.5" r="1"/>
		<circle cx="372.2" cy="535.5" r="1"/>
		<circle cx="379.5" cy="535.5" r="1"/>
		<circle cx="386.8" cy="535.5" r="1"/>
		<circle cx="394.2" cy="535.5" r="1"/>
		<circle cx="401.5" cy="535.5" r="1"/>
	</g>
	<g>
		<g>
			<g>
				<rect x="408.5" y="529.5" width="1" height="7"/>
			</g>
			<g>
				<rect x="405.5" y="532.5" width="7" height="1"/>
			</g>
		</g>
		<circle cx="416.5" cy="535.5" r="1"/>
		<circle cx="423.8" cy="535.5" r="1"/>
		<circle cx="431.2" cy="535.5" r="1"/>
		<circle cx="438.5" cy="535.5" r="1"/>
		<circle cx="445.8" cy="535.5" r="1"/>
		<circle cx="453.2" cy="535.5" r="1"/>
		<circle cx="460.5" cy="535.5" r="1"/>
	</g>
	<g>
		<g>
			<g>
				<rect x="467.5" y="529.5" width="1" height="7"/>
			</g>
			<g>
				<rect x="464.5" y="532.5" width="7" height="1"/>
			</g>
		</g>
		<circle cx="475.5" cy="535.5" r="1"/>
		<circle cx="482.8" cy="535.5" r="1"/>
		<circle cx="490.2" cy="535.5" r="1"/>
		<circle cx="497.5" cy="535.5" r="1"/>
		<circle cx="504.8" cy="535.5" r="1"/>
		<circle cx="512.2" cy="535.5" r="1"/>
		<circle cx="519.5" cy="535.5" r="1"/>
	</g>
	<g>
		<g>
			<g>
				<rect x="526.5" y="529.5" width="1" height="7"/>
			</g>
			<g>
				<rect x="523.5" y="532.5" width="7" height="1"/>
			</g>
		</g>
		<circle cx="534.5" cy="535.5" r="1"/>
		<circle cx="541.8" cy="535.5" r="1"/>
		<circle cx="549.2" cy="535.5" r="1"/>
		<circle cx="556.5" cy="535.5" r="1"/>
		<circle cx="563.8" cy="535.5" r="1"/>
		<circle cx="571.2" cy="535.5" r="1"/>
		<circle cx="578.5" cy="535.5" r="1"/>
	</g>
	<g>
		<g>
			<g>
				<rect x="585.5" y="529.5" width="1" height="7"/>
			</g>
			<g>
				<rect x="582.5" y="532.5" width="7" height="1"/>
			</g>
		</g>
		<circle cx="593.5" cy="535.5" r="1"/>
		<circle cx="600.8" cy="535.5" r="1"/>
		<circle cx="608.2" cy="535.5" r="1"/>
		<circle cx="615.5" cy="535.5" r="1"/>
		<circle cx="622.8" cy="535.5" r="1"/>
		<circle cx="630.2" cy="535.5" r="1"/>
		<circle cx="637.5" cy="535.5" r="1"/>
	</g>
	<g>
		<g>
			<g>
				<rect x="644.5" y="529.5" width="1" height="7"/>
			</g>
			<g>
				<rect x="641.5" y="532.5" width="7" height="1"/>
			</g>
		</g>
		<circle cx="652.5" cy="535.5" r="1"/>
		<circle cx="659.8" cy="535.5" r="1"/>
		<circle cx="667.2" cy="535.5" r="1"/>
		<circle cx="674.5" cy="535.5" r="1"/>
		<circle cx="681.8" cy="535.5" r="1"/>
		<circle cx="689.2" cy="535.5" r="1"/>
		<circle cx="696.5" cy="535.5" r="1"/>
	</g>
	<g>
		<g>
			<g>
				<rect x="703.5" y="529.5" width="1" height="7"/>
			</g>
			<g>
				<rect x="700.5" y="532.5" width="7" height="1"/>
			</g>
		</g>
		<circle cx="711.5" cy="535.5" r="1"/>
		<circle cx="718.8" cy="535.5" r="1"/>
		<circle cx="726.2" cy="535.5" r="1"/>
		<circle cx="733.5" cy="535.5" r="1"/>
		<circle cx="740.8" cy="535.5" r="1"/>
		<circle cx="748.2" cy="535.5" r="1"/>
		<circle cx="755.5" cy="535.5" r="1"/>
	</g>
	<g>
		<g>
			<g>
				<g>
					<rect x="290.5" y="410.5" width="1" height="7"/>
				</g>
				<g>
					<rect x="287.5" y="413.5" width="7" height="1"/>
				</g>
			</g>
			<circle cx="298.5" cy="416.5" r="1"/>
			<circle cx="305.8" cy="416.5" r="1"/>
			<circle cx="313.2" cy="416.5" r="1"/>
			<circle cx="320.5" cy="416.5" r="1"/>
			<circle cx="327.8" cy="416.5" r="1"/>
			<circle cx="335.2" cy="416.5" r="1"/>
			<circle cx="342.5" cy="416.5" r="1"/>
		</g>
		<g>
			<g>
				<g>
					<rect x="349.5" y="410.5" width="1" height="7"/>
				</g>
				<g>
					<rect x="346.5" y="413.5" width="7" height="1"/>
				</g>
			</g>
			<circle cx="357.5" cy="416.5" r="1"/>
			<circle cx="364.8" cy="416.5" r="1"/>
			<circle cx="372.2" cy="416.5" r="1"/>
			<circle cx="379.5" cy="416.5" r="1"/>
			<circle cx="386.8" cy="416.5" r="1"/>
			<circle cx="394.2" cy="416.5" r="1"/>
			<circle cx="401.5" cy="416.5" r="1"/>
		</g>
		<g>
			<g>
				<g>
					<rect x="408.5" y="410.5" width="1" height="7"/>
				</g>
				<g>
					<rect x="405.5" y="413.5" width="7" height="1"/>
				</g>
			</g>
			<circle cx="416.5" cy="416.5" r="1"/>
			<circle cx="423.8" cy="416.5" r="1"/>
			<circle cx="431.2" cy="416.5" r="1"/>
			<circle cx="438.5" cy="416.5" r="1"/>
			<circle cx="445.8" cy="416.5" r="1"/>
			<circle cx="453.2" cy="416.5" r="1"/>
			<circle cx="460.5" cy="416.5" r="1"/>
		</g>
		<g>
			<g>
				<g>
					<rect x="467.5" y="410.5" width="1" height="7"/>
				</g>
				<g>
					<rect x="464.5" y="413.5" width="7" height="1"/>
				</g>
			</g>
			<circle cx="475.5" cy="416.5" r="1"/>
			<circle cx="482.8" cy="416.5" r="1"/>
			<circle cx="490.2" cy="416.5" r="1"/>
			<circle cx="497.5" cy="416.5" r="1"/>
			<circle cx="504.8" cy="416.5" r="1"/>
			<circle cx="512.2" cy="416.5" r="1"/>
			<circle cx="519.5" cy="416.5" r="1"/>
		</g>
		<g>
			<g>
				<g>
					<rect x="526.5" y="410.5" width="1" height="7"/>
				</g>
				<g>
					<rect x="523.5" y="413.5" width="7" height="1"/>
				</g>
			</g>
			<circle cx="534.5" cy="416.5" r="1"/>
			<circle cx="541.8" cy="416.5" r="1"/>
			<circle cx="549.2" cy="416.5" r="1"/>
			<circle cx="556.5" cy="416.5" r="1"/>
			<circle cx="563.8" cy="416.5" r="1"/>
			<circle cx="571.2" cy="416.5" r="1"/>
			<circle cx="578.5" cy="416.5" r="1"/>
		</g>
		<g>
			<g>
				<g>
					<rect x="585.5" y="410.5" width="1" height="7"/>
				</g>
				<g>
					<rect x="582.5" y="413.5" width="7" height="1"/>
				</g>
			</g>
			<circle cx="593.5" cy="416.5" r="1"/>
			<circle cx="600.8" cy="416.5" r="1"/>
			<circle cx="608.2" cy="416.5" r="1"/>
			<circle cx="615.5" cy="416.5" r="1"/>
			<circle cx="622.8" cy="416.5" r="1"/>
			<circle cx="630.2" cy="416.5" r="1"/>
			<circle cx="637.5" cy="416.5" r="1"/>
		</g>
		<g>
			<g>
				<g>
					<rect x="644.5" y="410.5" width="1" height="7"/>
				</g>
				<g>
					<rect x="641.5" y="413.5" width="7" height="1"/>
				</g>
			</g>
			<circle cx="652.5" cy="416.5" r="1"/>
			<circle cx="659.8" cy="416.5" r="1"/>
			<circle cx="667.2" cy="416.5" r="1"/>
			<circle cx="674.5" cy="416.5" r="1"/>
			<circle cx="681.8" cy="416.5" r="1"/>
			<circle cx="689.2" cy="416.5" r="1"/>
			<circle cx="696.5" cy="416.5" r="1"/>
		</g>
		<g>
			<g>
				<g>
					<rect x="703.5" y="410.5" width="1" height="7"/>
				</g>
				<g>
					<rect x="700.5" y="413.5" width="7" height="1"/>
				</g>
			</g>
			<circle cx="711.5" cy="416.5" r="1"/>
			<circle cx="718.8" cy="416.5" r="1"/>
			<circle cx="726.2" cy="416.5" r="1"/>
			<circle cx="733.5" cy="416.5" r="1"/>
			<circle cx="740.8" cy="416.5" r="1"/>
			<circle cx="748.2" cy="416.5" r="1"/>
			<circle cx="755.5" cy="416.5" r="1"/>
		</g>
		<g>
			<circle cx="298.9" cy="431.5" r="1"/>
			<circle cx="291.5" cy="431.5" r="1"/>
			<circle cx="306.2" cy="431.5" r="1"/>
			<circle cx="313.6" cy="431.5" r="1"/>
			<circle cx="321" cy="431.5" r="1"/>
			<circle cx="328.3" cy="431.5" r="1"/>
			<circle cx="335.7" cy="431.5" r="1"/>
			<circle cx="343.1" cy="431.5" r="1"/>
			<circle cx="350.4" cy="431.5" r="1"/>
			<circle cx="357.8" cy="431.5" r="1"/>
			<circle cx="365.2" cy="431.5" r="1"/>
			<circle cx="372.5" cy="431.5" r="1"/>
			<circle cx="379.9" cy="431.5" r="1"/>
			<circle cx="387.2" cy="431.5" r="1"/>
			<circle cx="394.6" cy="431.5" r="1"/>
			<circle cx="402" cy="431.5" r="1"/>
			<circle cx="409.3" cy="431.5" r="1"/>
			<circle cx="416.7" cy="431.5" r="1"/>
			<circle cx="424.1" cy="431.5" r="1"/>
			<circle cx="431.4" cy="431.5" r="1"/>
			<circle cx="438.8" cy="431.5" r="1"/>
			<circle cx="446.2" cy="431.5" r="1"/>
			<circle cx="453.5" cy="431.5" r="1"/>
			<circle cx="460.9" cy="431.5" r="1"/>
			<circle cx="468.3" cy="431.5" r="1"/>
			<circle cx="475.6" cy="431.5" r="1"/>
			<circle cx="483" cy="431.5" r="1"/>
			<circle cx="490.4" cy="431.5" r="1"/>
			<circle cx="497.7" cy="431.5" r="1"/>
			<circle cx="505.1" cy="431.5" r="1"/>
			<circle cx="512.5" cy="431.5" r="1"/>
			<circle cx="519.8" cy="431.5" r="1"/>
			<circle cx="527.2" cy="431.5" r="1"/>
			<circle cx="534.5" cy="431.5" r="1"/>
			<circle cx="541.9" cy="431.5" r="1"/>
			<circle cx="549.3" cy="431.5" r="1"/>
			<circle cx="556.6" cy="431.5" r="1"/>
			<circle cx="564" cy="431.5" r="1"/>
			<circle cx="571.4" cy="431.5" r="1"/>
			<circle cx="578.7" cy="431.5" r="1"/>
			<circle cx="586.1" cy="431.5" r="1"/>
			<circle cx="593.5" cy="431.5" r="1"/>
			<circle cx="600.8" cy="431.5" r="1"/>
			<circle cx="608.2" cy="431.5" r="1"/>
			<circle cx="615.6" cy="431.5" r="1"/>
			<circle cx="622.9" cy="431.5" r="1"/>
			<circle cx="630.3" cy="431.5" r="1"/>
			<circle cx="637.7" cy="431.5" r="1"/>
			<circle cx="645" cy="431.5" r="1"/>
			<circle cx="652.4" cy="431.5" r="1"/>
			<circle cx="659.8" cy="431.5" r="1"/>
			<circle cx="667.1" cy="431.5" r="1"/>
			<circle cx="674.5" cy="431.5" r="1"/>
			<circle cx="681.8" cy="431.5" r="1"/>
			<circle cx="689.2" cy="431.5" r="1"/>
			<circle cx="696.6" cy="431.5" r="1"/>
			<circle cx="703.9" cy="431.5" r="1"/>
			<circle cx="711.3" cy="431.5" r="1"/>
			<circle cx="718.7" cy="431.5" r="1"/>
			<circle cx="726" cy="431.5" r="1"/>
			<circle cx="733.4" cy="431.5" r="1"/>
			<circle cx="740.8" cy="431.5" r="1"/>
			<circle cx="748.1" cy="431.5" r="1"/>
			<circle cx="755.5" cy="431.5" r="1"/>
		</g>
		<g>
			<circle cx="298.9" cy="446.3" r="1"/>
			<circle cx="291.5" cy="446.3" r="1"/>
			<circle cx="306.2" cy="446.3" r="1"/>
			<circle cx="313.6" cy="446.3" r="1"/>
			<circle cx="321" cy="446.3" r="1"/>
			<circle cx="328.3" cy="446.3" r="1"/>
			<circle cx="335.7" cy="446.3" r="1"/>
			<circle cx="343.1" cy="446.3" r="1"/>
			<circle cx="350.4" cy="446.3" r="1"/>
			<circle cx="357.8" cy="446.3" r="1"/>
			<circle cx="365.2" cy="446.3" r="1"/>
			<circle cx="372.5" cy="446.3" r="1"/>
			<circle cx="379.9" cy="446.3" r="1"/>
			<circle cx="387.2" cy="446.3" r="1"/>
			<circle cx="394.6" cy="446.3" r="1"/>
			<circle cx="402" cy="446.3" r="1"/>
			<circle cx="409.3" cy="446.3" r="1"/>
			<circle cx="416.7" cy="446.3" r="1"/>
			<circle cx="424.1" cy="446.3" r="1"/>
			<circle cx="431.4" cy="446.3" r="1"/>
			<circle cx="438.8" cy="446.3" r="1"/>
			<circle cx="446.2" cy="446.3" r="1"/>
			<circle cx="453.5" cy="446.3" r="1"/>
			<circle cx="460.9" cy="446.3" r="1"/>
			<circle cx="468.3" cy="446.3" r="1"/>
			<circle cx="475.6" cy="446.3" r="1"/>
			<circle cx="483" cy="446.3" r="1"/>
			<circle cx="490.4" cy="446.3" r="1"/>
			<circle cx="497.7" cy="446.3" r="1"/>
			<circle cx="505.1" cy="446.3" r="1"/>
			<circle cx="512.5" cy="446.3" r="1"/>
			<circle cx="519.8" cy="446.3" r="1"/>
			<circle cx="527.2" cy="446.3" r="1"/>
			<circle cx="534.5" cy="446.3" r="1"/>
			<circle cx="541.9" cy="446.3" r="1"/>
			<circle cx="549.3" cy="446.3" r="1"/>
			<circle cx="556.6" cy="446.3" r="1"/>
			<circle cx="564" cy="446.3" r="1"/>
			<circle cx="571.4" cy="446.3" r="1"/>
			<circle cx="578.7" cy="446.3" r="1"/>
			<circle cx="586.1" cy="446.3" r="1"/>
			<circle cx="593.5" cy="446.3" r="1"/>
			<circle cx="600.8" cy="446.3" r="1"/>
			<circle cx="608.2" cy="446.3" r="1"/>
			<circle cx="615.6" cy="446.3" r="1"/>
			<circle cx="622.9" cy="446.3" r="1"/>
			<circle cx="630.3" cy="446.3" r="1"/>
			<circle cx="637.7" cy="446.3" r="1"/>
			<circle cx="645" cy="446.3" r="1"/>
			<circle cx="652.4" cy="446.3" r="1"/>
			<circle cx="659.8" cy="446.3" r="1"/>
			<circle cx="667.1" cy="446.3" r="1"/>
			<circle cx="674.5" cy="446.3" r="1"/>
			<circle cx="681.8" cy="446.3" r="1"/>
			<circle cx="689.2" cy="446.3" r="1"/>
			<circle cx="696.6" cy="446.3" r="1"/>
			<circle cx="703.9" cy="446.3" r="1"/>
			<circle cx="711.3" cy="446.3" r="1"/>
			<circle cx="718.7" cy="446.3" r="1"/>
			<circle cx="726" cy="446.3" r="1"/>
			<circle cx="733.4" cy="446.3" r="1"/>
			<circle cx="740.8" cy="446.3" r="1"/>
			<circle cx="748.1" cy="446.3" r="1"/>
			<circle cx="755.5" cy="446.3" r="1"/>
		</g>
		<g>
			<circle cx="298.9" cy="461.2" r="1"/>
			<circle cx="291.5" cy="461.2" r="1"/>
			<circle cx="306.2" cy="461.2" r="1"/>
			<circle cx="313.6" cy="461.2" r="1"/>
			<circle cx="321" cy="461.2" r="1"/>
			<circle cx="328.3" cy="461.2" r="1"/>
			<circle cx="335.7" cy="461.2" r="1"/>
			<circle cx="343.1" cy="461.2" r="1"/>
			<circle cx="350.4" cy="461.2" r="1"/>
			<circle cx="357.8" cy="461.2" r="1"/>
			<circle cx="365.2" cy="461.2" r="1"/>
			<circle cx="372.5" cy="461.2" r="1"/>
			<circle cx="379.9" cy="461.2" r="1"/>
			<circle cx="387.2" cy="461.2" r="1"/>
			<circle cx="394.6" cy="461.2" r="1"/>
			<circle cx="402" cy="461.2" r="1"/>
			<circle cx="409.3" cy="461.2" r="1"/>
			<circle cx="416.7" cy="461.2" r="1"/>
			<circle cx="424.1" cy="461.2" r="1"/>
			<circle cx="431.4" cy="461.2" r="1"/>
			<circle cx="438.8" cy="461.2" r="1"/>
			<circle cx="446.2" cy="461.2" r="1"/>
			<circle cx="453.5" cy="461.2" r="1"/>
			<circle cx="460.9" cy="461.2" r="1"/>
			<circle cx="468.3" cy="461.2" r="1"/>
			<circle cx="475.6" cy="461.2" r="1"/>
			<circle cx="483" cy="461.2" r="1"/>
			<circle cx="490.4" cy="461.2" r="1"/>
			<circle cx="497.7" cy="461.2" r="1"/>
			<circle cx="505.1" cy="461.2" r="1"/>
			<circle cx="512.5" cy="461.2" r="1"/>
			<circle cx="519.8" cy="461.2" r="1"/>
			<circle cx="527.2" cy="461.2" r="1"/>
			<circle cx="534.5" cy="461.2" r="1"/>
			<circle cx="541.9" cy="461.2" r="1"/>
			<circle cx="549.3" cy="461.2" r="1"/>
			<circle cx="556.6" cy="461.2" r="1"/>
			<circle cx="564" cy="461.2" r="1"/>
			<circle cx="571.4" cy="461.2" r="1"/>
			<circle cx="578.7" cy="461.2" r="1"/>
			<circle cx="586.1" cy="461.2" r="1"/>
			<circle cx="593.5" cy="461.2" r="1"/>
			<circle cx="600.8" cy="461.2" r="1"/>
			<circle cx="608.2" cy="461.2" r="1"/>
			<circle cx="615.6" cy="461.2" r="1"/>
			<circle cx="622.9" cy="461.2" r="1"/>
			<circle cx="630.3" cy="461.2" r="1"/>
			<circle cx="637.7" cy="461.2" r="1"/>
			<circle cx="645" cy="461.2" r="1"/>
			<circle cx="652.4" cy="461.2" r="1"/>
			<circle cx="659.8" cy="461.2" r="1"/>
			<circle cx="667.1" cy="461.2" r="1"/>
			<circle cx="674.5" cy="461.2" r="1"/>
			<circle cx="681.8" cy="461.2" r="1"/>
			<circle cx="689.2" cy="461.2" r="1"/>
			<circle cx="696.6" cy="461.2" r="1"/>
			<circle cx="703.9" cy="461.2" r="1"/>
			<circle cx="711.3" cy="461.2" r="1"/>
			<circle cx="718.7" cy="461.2" r="1"/>
			<circle cx="726" cy="461.2" r="1"/>
			<circle cx="733.4" cy="461.2" r="1"/>
			<circle cx="740.8" cy="461.2" r="1"/>
			<circle cx="748.1" cy="461.2" r="1"/>
			<circle cx="755.5" cy="461.2" r="1"/>
		</g>
		<g>
			<circle cx="298.9" cy="476" r="1"/>
			<circle cx="291.5" cy="476" r="1"/>
			<circle cx="306.2" cy="476" r="1"/>
			<circle cx="313.6" cy="476" r="1"/>
			<circle cx="321" cy="476" r="1"/>
			<circle cx="328.3" cy="476" r="1"/>
			<circle cx="335.7" cy="476" r="1"/>
			<circle cx="343.1" cy="476" r="1"/>
			<circle cx="350.4" cy="476" r="1"/>
			<circle cx="357.8" cy="476" r="1"/>
			<circle cx="365.2" cy="476" r="1"/>
			<circle cx="372.5" cy="476" r="1"/>
			<circle cx="379.9" cy="476" r="1"/>
			<circle cx="387.2" cy="476" r="1"/>
			<circle cx="394.6" cy="476" r="1"/>
			<circle cx="402" cy="476" r="1"/>
			<circle cx="409.3" cy="476" r="1"/>
			<circle cx="416.7" cy="476" r="1"/>
			<circle cx="424.1" cy="476" r="1"/>
			<circle cx="431.4" cy="476" r="1"/>
			<circle cx="438.8" cy="476" r="1"/>
			<circle cx="446.2" cy="476" r="1"/>
			<circle cx="453.5" cy="476" r="1"/>
			<circle cx="460.9" cy="476" r="1"/>
			<circle cx="468.3" cy="476" r="1"/>
			<circle cx="475.6" cy="476" r="1"/>
			<circle cx="483" cy="476" r="1"/>
			<circle cx="490.4" cy="476" r="1"/>
			<circle cx="497.7" cy="476" r="1"/>
			<circle cx="505.1" cy="476" r="1"/>
			<circle cx="512.5" cy="476" r="1"/>
			<circle cx="519.8" cy="476" r="1"/>
			<circle cx="527.2" cy="476" r="1"/>
			<circle cx="534.5" cy="476" r="1"/>
			<circle cx="541.9" cy="476" r="1"/>
			<circle cx="549.3" cy="476" r="1"/>
			<circle cx="556.6" cy="476" r="1"/>
			<circle cx="564" cy="476" r="1"/>
			<circle cx="571.4" cy="476" r="1"/>
			<circle cx="578.7" cy="476" r="1"/>
			<circle cx="586.1" cy="476" r="1"/>
			<circle cx="593.5" cy="476" r="1"/>
			<circle cx="600.8" cy="476" r="1"/>
			<circle cx="608.2" cy="476" r="1"/>
			<circle cx="615.6" cy="476" r="1"/>
			<circle cx="622.9" cy="476" r="1"/>
			<circle cx="630.3" cy="476" r="1"/>
			<circle cx="637.7" cy="476" r="1"/>
			<circle cx="645" cy="476" r="1"/>
			<circle cx="652.4" cy="476" r="1"/>
			<circle cx="659.8" cy="476" r="1"/>
			<circle cx="667.1" cy="476" r="1"/>
			<circle cx="674.5" cy="476" r="1"/>
			<circle cx="681.8" cy="476" r="1"/>
			<circle cx="689.2" cy="476" r="1"/>
			<circle cx="696.6" cy="476" r="1"/>
			<circle cx="703.9" cy="476" r="1"/>
			<circle cx="711.3" cy="476" r="1"/>
			<circle cx="718.7" cy="476" r="1"/>
			<circle cx="726" cy="476" r="1"/>
			<circle cx="733.4" cy="476" r="1"/>
			<circle cx="740.8" cy="476" r="1"/>
			<circle cx="748.1" cy="476" r="1"/>
			<circle cx="755.5" cy="476" r="1"/>
		</g>
		<g>
			<circle cx="298.9" cy="490.8" r="1"/>
			<circle cx="291.5" cy="490.8" r="1"/>
			<circle cx="306.2" cy="490.8" r="1"/>
			<circle cx="313.6" cy="490.8" r="1"/>
			<circle cx="321" cy="490.8" r="1"/>
			<circle cx="328.3" cy="490.8" r="1"/>
			<circle cx="335.7" cy="490.8" r="1"/>
			<circle cx="343.1" cy="490.8" r="1"/>
			<circle cx="350.4" cy="490.8" r="1"/>
			<circle cx="357.8" cy="490.8" r="1"/>
			<circle cx="365.2" cy="490.8" r="1"/>
			<circle cx="372.5" cy="490.8" r="1"/>
			<circle cx="379.9" cy="490.8" r="1"/>
			<circle cx="387.2" cy="490.8" r="1"/>
			<circle cx="394.6" cy="490.8" r="1"/>
			<circle cx="402" cy="490.8" r="1"/>
			<circle cx="409.3" cy="490.8" r="1"/>
			<circle cx="416.7" cy="490.8" r="1"/>
			<circle cx="424.1" cy="490.8" r="1"/>
			<circle cx="431.4" cy="490.8" r="1"/>
			<circle cx="438.8" cy="490.8" r="1"/>
			<circle cx="446.2" cy="490.8" r="1"/>
			<circle cx="453.5" cy="490.8" r="1"/>
			<circle cx="460.9" cy="490.8" r="1"/>
			<circle cx="468.3" cy="490.8" r="1"/>
			<circle cx="475.6" cy="490.8" r="1"/>
			<circle cx="483" cy="490.8" r="1"/>
			<circle cx="490.4" cy="490.8" r="1"/>
			<circle cx="497.7" cy="490.8" r="1"/>
			<circle cx="505.1" cy="490.8" r="1"/>
			<circle cx="512.5" cy="490.8" r="1"/>
			<circle cx="519.8" cy="490.8" r="1"/>
			<circle cx="527.2" cy="490.8" r="1"/>
			<circle cx="534.5" cy="490.8" r="1"/>
			<circle cx="541.9" cy="490.8" r="1"/>
			<circle cx="549.3" cy="490.8" r="1"/>
			<circle cx="556.6" cy="490.8" r="1"/>
			<circle cx="564" cy="490.8" r="1"/>
			<circle cx="571.4" cy="490.8" r="1"/>
			<circle cx="578.7" cy="490.8" r="1"/>
			<circle cx="586.1" cy="490.8" r="1"/>
			<circle cx="593.5" cy="490.8" r="1"/>
			<circle cx="600.8" cy="490.8" r="1"/>
			<circle cx="608.2" cy="490.8" r="1"/>
			<circle cx="615.6" cy="490.8" r="1"/>
			<circle cx="622.9" cy="490.8" r="1"/>
			<circle cx="630.3" cy="490.8" r="1"/>
			<circle cx="637.7" cy="490.8" r="1"/>
			<circle cx="645" cy="490.8" r="1"/>
			<circle cx="652.4" cy="490.8" r="1"/>
			<circle cx="659.8" cy="490.8" r="1"/>
			<circle cx="667.1" cy="490.8" r="1"/>
			<circle cx="674.5" cy="490.8" r="1"/>
			<circle cx="681.8" cy="490.8" r="1"/>
			<circle cx="689.2" cy="490.8" r="1"/>
			<circle cx="696.6" cy="490.8" r="1"/>
			<circle cx="703.9" cy="490.8" r="1"/>
			<circle cx="711.3" cy="490.8" r="1"/>
			<circle cx="718.7" cy="490.8" r="1"/>
			<circle cx="726" cy="490.8" r="1"/>
			<circle cx="733.4" cy="490.8" r="1"/>
			<circle cx="740.8" cy="490.8" r="1"/>
			<circle cx="748.1" cy="490.8" r="1"/>
			<circle cx="755.5" cy="490.8" r="1"/>
		</g>
		<g>
			<circle cx="298.9" cy="505.7" r="1"/>
			<circle cx="291.5" cy="505.7" r="1"/>
			<circle cx="306.2" cy="505.7" r="1"/>
			<circle cx="313.6" cy="505.7" r="1"/>
			<circle cx="321" cy="505.7" r="1"/>
			<circle cx="328.3" cy="505.7" r="1"/>
			<circle cx="335.7" cy="505.7" r="1"/>
			<circle cx="343.1" cy="505.7" r="1"/>
			<circle cx="350.4" cy="505.7" r="1"/>
			<circle cx="357.8" cy="505.7" r="1"/>
			<circle cx="365.2" cy="505.7" r="1"/>
			<circle cx="372.5" cy="505.7" r="1"/>
			<circle cx="379.9" cy="505.7" r="1"/>
			<circle cx="387.2" cy="505.7" r="1"/>
			<circle cx="394.6" cy="505.7" r="1"/>
			<circle cx="402" cy="505.7" r="1"/>
			<circle cx="409.3" cy="505.7" r="1"/>
			<circle cx="416.7" cy="505.7" r="1"/>
			<circle cx="424.1" cy="505.7" r="1"/>
			<circle cx="431.4" cy="505.7" r="1"/>
			<circle cx="438.8" cy="505.7" r="1"/>
			<circle cx="446.2" cy="505.7" r="1"/>
			<circle cx="453.5" cy="505.7" r="1"/>
			<circle cx="460.9" cy="505.7" r="1"/>
			<circle cx="468.3" cy="505.7" r="1"/>
			<circle cx="475.6" cy="505.7" r="1"/>
			<circle cx="483" cy="505.7" r="1"/>
			<circle cx="490.4" cy="505.7" r="1"/>
			<circle cx="497.7" cy="505.7" r="1"/>
			<circle cx="505.1" cy="505.7" r="1"/>
			<circle cx="512.5" cy="505.7" r="1"/>
			<circle cx="519.8" cy="505.7" r="1"/>
			<circle cx="527.2" cy="505.7" r="1"/>
			<circle cx="534.5" cy="505.7" r="1"/>
			<circle cx="541.9" cy="505.7" r="1"/>
			<circle cx="549.3" cy="505.7" r="1"/>
			<circle cx="556.6" cy="505.7" r="1"/>
			<circle cx="564" cy="505.7" r="1"/>
			<circle cx="571.4" cy="505.7" r="1"/>
			<circle cx="578.7" cy="505.7" r="1"/>
			<circle cx="586.1" cy="505.7" r="1"/>
			<circle cx="593.5" cy="505.7" r="1"/>
			<circle cx="600.8" cy="505.7" r="1"/>
			<circle cx="608.2" cy="505.7" r="1"/>
			<circle cx="615.6" cy="505.7" r="1"/>
			<circle cx="622.9" cy="505.7" r="1"/>
			<circle cx="630.3" cy="505.7" r="1"/>
			<circle cx="637.7" cy="505.7" r="1"/>
			<circle cx="645" cy="505.7" r="1"/>
			<circle cx="652.4" cy="505.7" r="1"/>
			<circle cx="659.8" cy="505.7" r="1"/>
			<circle cx="667.1" cy="505.7" r="1"/>
			<circle cx="674.5" cy="505.7" r="1"/>
			<circle cx="681.8" cy="505.7" r="1"/>
			<circle cx="689.2" cy="505.7" r="1"/>
			<circle cx="696.6" cy="505.7" r="1"/>
			<circle cx="703.9" cy="505.7" r="1"/>
			<circle cx="711.3" cy="505.7" r="1"/>
			<circle cx="718.7" cy="505.7" r="1"/>
			<circle cx="726" cy="505.7" r="1"/>
			<circle cx="733.4" cy="505.7" r="1"/>
			<circle cx="740.8" cy="505.7" r="1"/>
			<circle cx="748.1" cy="505.7" r="1"/>
			<circle cx="755.5" cy="505.7" r="1"/>
		</g>
		<g>
			<circle cx="298.9" cy="520.5" r="1"/>
			<circle cx="291.5" cy="520.5" r="1"/>
			<circle cx="306.2" cy="520.5" r="1"/>
			<circle cx="313.6" cy="520.5" r="1"/>
			<circle cx="321" cy="520.5" r="1"/>
			<circle cx="328.3" cy="520.5" r="1"/>
			<circle cx="335.7" cy="520.5" r="1"/>
			<circle cx="343.1" cy="520.5" r="1"/>
			<circle cx="350.4" cy="520.5" r="1"/>
			<circle cx="357.8" cy="520.5" r="1"/>
			<circle cx="365.2" cy="520.5" r="1"/>
			<circle cx="372.5" cy="520.5" r="1"/>
			<circle cx="379.9" cy="520.5" r="1"/>
			<circle cx="387.2" cy="520.5" r="1"/>
			<circle cx="394.6" cy="520.5" r="1"/>
			<circle cx="402" cy="520.5" r="1"/>
			<circle cx="409.3" cy="520.5" r="1"/>
			<circle cx="416.7" cy="520.5" r="1"/>
			<circle cx="424.1" cy="520.5" r="1"/>
			<circle cx="431.4" cy="520.5" r="1"/>
			<circle cx="438.8" cy="520.5" r="1"/>
			<circle cx="446.2" cy="520.5" r="1"/>
			<circle cx="453.5" cy="520.5" r="1"/>
			<circle cx="460.9" cy="520.5" r="1"/>
			<circle cx="468.3" cy="520.5" r="1"/>
			<circle cx="475.6" cy="520.5" r="1"/>
			<circle cx="483" cy="520.5" r="1"/>
			<circle cx="490.4" cy="520.5" r="1"/>
			<circle cx="497.7" cy="520.5" r="1"/>
			<circle cx="505.1" cy="520.5" r="1"/>
			<circle cx="512.5" cy="520.5" r="1"/>
			<circle cx="519.8" cy="520.5" r="1"/>
			<circle cx="527.2" cy="520.5" r="1"/>
			<circle cx="534.5" cy="520.5" r="1"/>
			<circle cx="541.9" cy="520.5" r="1"/>
			<circle cx="549.3" cy="520.5" r="1"/>
			<circle cx="556.6" cy="520.5" r="1"/>
			<circle cx="564" cy="520.5" r="1"/>
			<circle cx="571.4" cy="520.5" r="1"/>
			<circle cx="578.7" cy="520.5" r="1"/>
			<circle cx="586.1" cy="520.5" r="1"/>
			<circle cx="593.5" cy="520.5" r="1"/>
			<circle cx="600.8" cy="520.5" r="1"/>
			<circle cx="608.2" cy="520.5" r="1"/>
			<circle cx="615.6" cy="520.5" r="1"/>
			<circle cx="622.9" cy="520.5" r="1"/>
			<circle cx="630.3" cy="520.5" r="1"/>
			<circle cx="637.7" cy="520.5" r="1"/>
			<circle cx="645" cy="520.5" r="1"/>
			<circle cx="652.4" cy="520.5" r="1"/>
			<circle cx="659.8" cy="520.5" r="1"/>
			<circle cx="667.1" cy="520.5" r="1"/>
			<circle cx="674.5" cy="520.5" r="1"/>
			<circle cx="681.8" cy="520.5" r="1"/>
			<circle cx="689.2" cy="520.5" r="1"/>
			<circle cx="696.6" cy="520.5" r="1"/>
			<circle cx="703.9" cy="520.5" r="1"/>
			<circle cx="711.3" cy="520.5" r="1"/>
			<circle cx="718.7" cy="520.5" r="1"/>
			<circle cx="726" cy="520.5" r="1"/>
			<circle cx="733.4" cy="520.5" r="1"/>
			<circle cx="740.8" cy="520.5" r="1"/>
			<circle cx="748.1" cy="520.5" r="1"/>
			<circle cx="755.5" cy="520.5" r="1"/>
		</g>
	</g>
	<g>
		<g>
			<g>
				<g>
					<rect x="290.5" y="291.5" width="1" height="7"/>
				</g>
				<g>
					<rect x="287.5" y="294.5" width="7" height="1"/>
				</g>
			</g>
			<circle cx="298.5" cy="297.5" r="1"/>
			<circle cx="305.8" cy="297.5" r="1"/>
			<circle cx="313.2" cy="297.5" r="1"/>
			<circle cx="320.5" cy="297.5" r="1"/>
			<circle cx="327.8" cy="297.5" r="1"/>
			<circle cx="335.2" cy="297.5" r="1"/>
			<circle cx="342.5" cy="297.5" r="1"/>
		</g>
		<g>
			<g>
				<g>
					<rect x="349.5" y="291.5" width="1" height="7"/>
				</g>
				<g>
					<rect x="346.5" y="294.5" width="7" height="1"/>
				</g>
			</g>
			<circle cx="357.5" cy="297.5" r="1"/>
			<circle cx="364.8" cy="297.5" r="1"/>
			<circle cx="372.2" cy="297.5" r="1"/>
			<circle cx="379.5" cy="297.5" r="1"/>
			<circle cx="386.8" cy="297.5" r="1"/>
			<circle cx="394.2" cy="297.5" r="1"/>
			<circle cx="401.5" cy="297.5" r="1"/>
		</g>
		<g>
			<g>
				<g>
					<rect x="408.5" y="291.5" width="1" height="7"/>
				</g>
				<g>
					<rect x="405.5" y="294.5" width="7" height="1"/>
				</g>
			</g>
			<circle cx="416.5" cy="297.5" r="1"/>
			<circle cx="423.8" cy="297.5" r="1"/>
			<circle cx="431.2" cy="297.5" r="1"/>
			<circle cx="438.5" cy="297.5" r="1"/>
			<circle cx="445.8" cy="297.5" r="1"/>
			<circle cx="453.2" cy="297.5" r="1"/>
			<circle cx="460.5" cy="297.5" r="1"/>
		</g>
		<g>
			<g>
				<g>
					<rect x="467.5" y="291.5" width="1" height="7"/>
				</g>
				<g>
					<rect x="464.5" y="294.5" width="7" height="1"/>
				</g>
			</g>
			<circle cx="475.5" cy="297.5" r="1"/>
			<circle cx="482.8" cy="297.5" r="1"/>
			<circle cx="490.2" cy="297.5" r="1"/>
			<circle cx="497.5" cy="297.5" r="1"/>
			<circle cx="504.8" cy="297.5" r="1"/>
			<circle cx="512.2" cy="297.5" r="1"/>
			<circle cx="519.5" cy="297.5" r="1"/>
		</g>
		<g>
			<g>
				<g>
					<rect x="526.5" y="291.5" width="1" height="7"/>
				</g>
				<g>
					<rect x="523.5" y="294.5" width="7" height="1"/>
				</g>
			</g>
			<circle cx="534.5" cy="297.5" r="1"/>
			<circle cx="541.8" cy="297.5" r="1"/>
			<circle cx="549.2" cy="297.5" r="1"/>
			<circle cx="556.5" cy="297.5" r="1"/>
			<circle cx="563.8" cy="297.5" r="1"/>
			<circle cx="571.2" cy="297.5" r="1"/>
			<circle cx="578.5" cy="297.5" r="1"/>
		</g>
		<g>
			<g>
				<g>
					<rect x="585.5" y="291.5" width="1" height="7"/>
				</g>
				<g>
					<rect x="582.5" y="294.5" width="7" height="1"/>
				</g>
			</g>
			<circle cx="593.5" cy="297.5" r="1"/>
			<circle cx="600.8" cy="297.5" r="1"/>
			<circle cx="608.2" cy="297.5" r="1"/>
			<circle cx="615.5" cy="297.5" r="1"/>
			<circle cx="622.8" cy="297.5" r="1"/>
			<circle cx="630.2" cy="297.5" r="1"/>
			<circle cx="637.5" cy="297.5" r="1"/>
		</g>
		<g>
			<g>
				<g>
					<rect x="644.5" y="291.5" width="1" height="7"/>
				</g>
				<g>
					<rect x="641.5" y="294.5" width="7" height="1"/>
				</g>
			</g>
			<circle cx="652.5" cy="297.5" r="1"/>
			<circle cx="659.8" cy="297.5" r="1"/>
			<circle cx="667.2" cy="297.5" r="1"/>
			<circle cx="674.5" cy="297.5" r="1"/>
			<circle cx="681.8" cy="297.5" r="1"/>
			<circle cx="689.2" cy="297.5" r="1"/>
			<circle cx="696.5" cy="297.5" r="1"/>
		</g>
		<g>
			<g>
				<g>
					<rect x="703.5" y="291.5" width="1" height="7"/>
				</g>
				<g>
					<rect x="700.5" y="294.5" width="7" height="1"/>
				</g>
			</g>
			<circle cx="711.5" cy="297.5" r="1"/>
			<circle cx="718.8" cy="297.5" r="1"/>
			<circle cx="726.2" cy="297.5" r="1"/>
			<circle cx="733.5" cy="297.5" r="1"/>
			<circle cx="740.8" cy="297.5" r="1"/>
			<circle cx="748.2" cy="297.5" r="1"/>
			<circle cx="755.5" cy="297.5" r="1"/>
		</g>
		<g>
			<circle cx="298.9" cy="312.5" r="1"/>
			<circle cx="291.5" cy="312.5" r="1"/>
			<circle cx="306.2" cy="312.5" r="1"/>
			<circle cx="313.6" cy="312.5" r="1"/>
			<circle cx="321" cy="312.5" r="1"/>
			<circle cx="328.3" cy="312.5" r="1"/>
			<circle cx="335.7" cy="312.5" r="1"/>
			<circle cx="343.1" cy="312.5" r="1"/>
			<circle cx="350.4" cy="312.5" r="1"/>
			<circle cx="357.8" cy="312.5" r="1"/>
			<circle cx="365.2" cy="312.5" r="1"/>
			<circle cx="372.5" cy="312.5" r="1"/>
			<circle cx="379.9" cy="312.5" r="1"/>
			<circle cx="387.2" cy="312.5" r="1"/>
			<circle cx="394.6" cy="312.5" r="1"/>
			<circle cx="402" cy="312.5" r="1"/>
			<circle cx="409.3" cy="312.5" r="1"/>
			<circle cx="416.7" cy="312.5" r="1"/>
			<circle cx="424.1" cy="312.5" r="1"/>
			<circle cx="431.4" cy="312.5" r="1"/>
			<circle cx="438.8" cy="312.5" r="1"/>
			<circle cx="446.2" cy="312.5" r="1"/>
			<circle cx="453.5" cy="312.5" r="1"/>
			<circle cx="460.9" cy="312.5" r="1"/>
			<circle cx="468.3" cy="312.5" r="1"/>
			<circle cx="475.6" cy="312.5" r="1"/>
			<circle cx="483" cy="312.5" r="1"/>
			<circle cx="490.4" cy="312.5" r="1"/>
			<circle cx="497.7" cy="312.5" r="1"/>
			<circle cx="505.1" cy="312.5" r="1"/>
			<circle cx="512.5" cy="312.5" r="1"/>
			<circle cx="519.8" cy="312.5" r="1"/>
			<circle cx="527.2" cy="312.5" r="1"/>
			<circle cx="534.5" cy="312.5" r="1"/>
			<circle cx="541.9" cy="312.5" r="1"/>
			<circle cx="549.3" cy="312.5" r="1"/>
			<circle cx="556.6" cy="312.5" r="1"/>
			<circle cx="564" cy="312.5" r="1"/>
			<circle cx="571.4" cy="312.5" r="1"/>
			<circle cx="578.7" cy="312.5" r="1"/>
			<circle cx="586.1" cy="312.5" r="1"/>
			<circle cx="593.5" cy="312.5" r="1"/>
			<circle cx="600.8" cy="312.5" r="1"/>
			<circle cx="608.2" cy="312.5" r="1"/>
			<circle cx="615.6" cy="312.5" r="1"/>
			<circle cx="622.9" cy="312.5" r="1"/>
			<circle cx="630.3" cy="312.5" r="1"/>
			<circle cx="637.7" cy="312.5" r="1"/>
			<circle cx="645" cy="312.5" r="1"/>
			<circle cx="652.4" cy="312.5" r="1"/>
			<circle cx="659.8" cy="312.5" r="1"/>
			<circle cx="667.1" cy="312.5" r="1"/>
			<circle cx="674.5" cy="312.5" r="1"/>
			<circle cx="681.8" cy="312.5" r="1"/>
			<circle cx="689.2" cy="312.5" r="1"/>
			<circle cx="696.6" cy="312.5" r="1"/>
			<circle cx="703.9" cy="312.5" r="1"/>
			<circle cx="711.3" cy="312.5" r="1"/>
			<circle cx="718.7" cy="312.5" r="1"/>
			<circle cx="726" cy="312.5" r="1"/>
			<circle cx="733.4" cy="312.5" r="1"/>
			<circle cx="740.8" cy="312.5" r="1"/>
			<circle cx="748.1" cy="312.5" r="1"/>
			<circle cx="755.5" cy="312.5" r="1"/>
		</g>
		<g>
			<circle cx="298.9" cy="327.3" r="1"/>
			<circle cx="291.5" cy="327.3" r="1"/>
			<circle cx="306.2" cy="327.3" r="1"/>
			<circle cx="313.6" cy="327.3" r="1"/>
			<circle cx="321" cy="327.3" r="1"/>
			<circle cx="328.3" cy="327.3" r="1"/>
			<circle cx="335.7" cy="327.3" r="1"/>
			<circle cx="343.1" cy="327.3" r="1"/>
			<circle cx="350.4" cy="327.3" r="1"/>
			<circle cx="357.8" cy="327.3" r="1"/>
			<circle cx="365.2" cy="327.3" r="1"/>
			<circle cx="372.5" cy="327.3" r="1"/>
			<circle cx="379.9" cy="327.3" r="1"/>
			<circle cx="387.2" cy="327.3" r="1"/>
			<circle cx="394.6" cy="327.3" r="1"/>
			<circle cx="402" cy="327.3" r="1"/>
			<circle cx="409.3" cy="327.3" r="1"/>
			<circle cx="416.7" cy="327.3" r="1"/>
			<circle cx="424.1" cy="327.3" r="1"/>
			<circle cx="431.4" cy="327.3" r="1"/>
			<circle cx="438.8" cy="327.3" r="1"/>
			<circle cx="446.2" cy="327.3" r="1"/>
			<circle cx="453.5" cy="327.3" r="1"/>
			<circle cx="460.9" cy="327.3" r="1"/>
			<circle cx="468.3" cy="327.3" r="1"/>
			<circle cx="475.6" cy="327.3" r="1"/>
			<circle cx="483" cy="327.3" r="1"/>
			<circle cx="490.4" cy="327.3" r="1"/>
			<circle cx="497.7" cy="327.3" r="1"/>
			<circle cx="505.1" cy="327.3" r="1"/>
			<circle cx="512.5" cy="327.3" r="1"/>
			<circle cx="519.8" cy="327.3" r="1"/>
			<circle cx="527.2" cy="327.3" r="1"/>
			<circle cx="534.5" cy="327.3" r="1"/>
			<circle cx="541.9" cy="327.3" r="1"/>
			<circle cx="549.3" cy="327.3" r="1"/>
			<circle cx="556.6" cy="327.3" r="1"/>
			<circle cx="564" cy="327.3" r="1"/>
			<circle cx="571.4" cy="327.3" r="1"/>
			<circle cx="578.7" cy="327.3" r="1"/>
			<circle cx="586.1" cy="327.3" r="1"/>
			<circle cx="593.5" cy="327.3" r="1"/>
			<circle cx="600.8" cy="327.3" r="1"/>
			<circle cx="608.2" cy="327.3" r="1"/>
			<circle cx="615.6" cy="327.3" r="1"/>
			<circle cx="622.9" cy="327.3" r="1"/>
			<circle cx="630.3" cy="327.3" r="1"/>
			<circle cx="637.7" cy="327.3" r="1"/>
			<circle cx="645" cy="327.3" r="1"/>
			<circle cx="652.4" cy="327.3" r="1"/>
			<circle cx="659.8" cy="327.3" r="1"/>
			<circle cx="667.1" cy="327.3" r="1"/>
			<circle cx="674.5" cy="327.3" r="1"/>
			<circle cx="681.8" cy="327.3" r="1"/>
			<circle cx="689.2" cy="327.3" r="1"/>
			<circle cx="696.6" cy="327.3" r="1"/>
			<circle cx="703.9" cy="327.3" r="1"/>
			<circle cx="711.3" cy="327.3" r="1"/>
			<circle cx="718.7" cy="327.3" r="1"/>
			<circle cx="726" cy="327.3" r="1"/>
			<circle cx="733.4" cy="327.3" r="1"/>
			<circle cx="740.8" cy="327.3" r="1"/>
			<circle cx="748.1" cy="327.3" r="1"/>
			<circle cx="755.5" cy="327.3" r="1"/>
		</g>
		<g>
			<circle cx="298.9" cy="342.2" r="1"/>
			<circle cx="291.5" cy="342.2" r="1"/>
			<circle cx="306.2" cy="342.2" r="1"/>
			<circle cx="313.6" cy="342.2" r="1"/>
			<circle cx="321" cy="342.2" r="1"/>
			<circle cx="328.3" cy="342.2" r="1"/>
			<circle cx="335.7" cy="342.2" r="1"/>
			<circle cx="343.1" cy="342.2" r="1"/>
			<circle cx="350.4" cy="342.2" r="1"/>
			<circle cx="357.8" cy="342.2" r="1"/>
			<circle cx="365.2" cy="342.2" r="1"/>
			<circle cx="372.5" cy="342.2" r="1"/>
			<circle cx="379.9" cy="342.2" r="1"/>
			<circle cx="387.2" cy="342.2" r="1"/>
			<circle cx="394.6" cy="342.2" r="1"/>
			<circle cx="402" cy="342.2" r="1"/>
			<circle cx="409.3" cy="342.2" r="1"/>
			<circle cx="416.7" cy="342.2" r="1"/>
			<circle cx="424.1" cy="342.2" r="1"/>
			<circle cx="431.4" cy="342.2" r="1"/>
			<circle cx="438.8" cy="342.2" r="1"/>
			<circle cx="446.2" cy="342.2" r="1"/>
			<circle cx="453.5" cy="342.2" r="1"/>
			<circle cx="460.9" cy="342.2" r="1"/>
			<circle cx="468.3" cy="342.2" r="1"/>
			<circle cx="475.6" cy="342.2" r="1"/>
			<circle cx="483" cy="342.2" r="1"/>
			<circle cx="490.4" cy="342.2" r="1"/>
			<circle cx="497.7" cy="342.2" r="1"/>
			<circle cx="505.1" cy="342.2" r="1"/>
			<circle cx="512.5" cy="342.2" r="1"/>
			<circle cx="519.8" cy="342.2" r="1"/>
			<circle cx="527.2" cy="342.2" r="1"/>
			<circle cx="534.5" cy="342.2" r="1"/>
			<circle cx="541.9" cy="342.2" r="1"/>
			<circle cx="549.3" cy="342.2" r="1"/>
			<circle cx="556.6" cy="342.2" r="1"/>
			<circle cx="564" cy="342.2" r="1"/>
			<circle cx="571.4" cy="342.2" r="1"/>
			<circle cx="578.7" cy="342.2" r="1"/>
			<circle cx="586.1" cy="342.2" r="1"/>
			<circle cx="593.5" cy="342.2" r="1"/>
			<circle cx="600.8" cy="342.2" r="1"/>
			<circle cx="608.2" cy="342.2" r="1"/>
			<circle cx="615.6" cy="342.2" r="1"/>
			<circle cx="622.9" cy="342.2" r="1"/>
			<circle cx="630.3" cy="342.2" r="1"/>
			<circle cx="637.7" cy="342.2" r="1"/>
			<circle cx="645" cy="342.2" r="1"/>
			<circle cx="652.4" cy="342.2" r="1"/>
			<circle cx="659.8" cy="342.2" r="1"/>
			<circle cx="667.1" cy="342.2" r="1"/>
			<circle cx="674.5" cy="342.2" r="1"/>
			<circle cx="681.8" cy="342.2" r="1"/>
			<circle cx="689.2" cy="342.2" r="1"/>
			<circle cx="696.6" cy="342.2" r="1"/>
			<circle cx="703.9" cy="342.2" r="1"/>
			<circle cx="711.3" cy="342.2" r="1"/>
			<circle cx="718.7" cy="342.2" r="1"/>
			<circle cx="726" cy="342.2" r="1"/>
			<circle cx="733.4" cy="342.2" r="1"/>
			<circle cx="740.8" cy="342.2" r="1"/>
			<circle cx="748.1" cy="342.2" r="1"/>
			<circle cx="755.5" cy="342.2" r="1"/>
		</g>
		<g>
			<circle cx="298.9" cy="357" r="1"/>
			<circle cx="291.5" cy="357" r="1"/>
			<circle cx="306.2" cy="357" r="1"/>
			<circle cx="313.6" cy="357" r="1"/>
			<circle cx="321" cy="357" r="1"/>
			<circle cx="328.3" cy="357" r="1"/>
			<circle cx="335.7" cy="357" r="1"/>
			<circle cx="343.1" cy="357" r="1"/>
			<circle cx="350.4" cy="357" r="1"/>
			<circle cx="357.8" cy="357" r="1"/>
			<circle cx="365.2" cy="357" r="1"/>
			<circle cx="372.5" cy="357" r="1"/>
			<circle cx="379.9" cy="357" r="1"/>
			<circle cx="387.2" cy="357" r="1"/>
			<circle cx="394.6" cy="357" r="1"/>
			<circle cx="402" cy="357" r="1"/>
			<circle cx="409.3" cy="357" r="1"/>
			<circle cx="416.7" cy="357" r="1"/>
			<circle cx="424.1" cy="357" r="1"/>
			<circle cx="431.4" cy="357" r="1"/>
			<circle cx="438.8" cy="357" r="1"/>
			<circle cx="446.2" cy="357" r="1"/>
			<circle cx="453.5" cy="357" r="1"/>
			<circle cx="460.9" cy="357" r="1"/>
			<circle cx="468.3" cy="357" r="1"/>
			<circle cx="475.6" cy="357" r="1"/>
			<circle cx="483" cy="357" r="1"/>
			<circle cx="490.4" cy="357" r="1"/>
			<circle cx="497.7" cy="357" r="1"/>
			<circle cx="505.1" cy="357" r="1"/>
			<circle cx="512.5" cy="357" r="1"/>
			<circle cx="519.8" cy="357" r="1"/>
			<circle cx="527.2" cy="357" r="1"/>
			<circle cx="534.5" cy="357" r="1"/>
			<circle cx="541.9" cy="357" r="1"/>
			<circle cx="549.3" cy="357" r="1"/>
			<circle cx="556.6" cy="357" r="1"/>
			<circle cx="564" cy="357" r="1"/>
			<circle cx="571.4" cy="357" r="1"/>
			<circle cx="578.7" cy="357" r="1"/>
			<circle cx="586.1" cy="357" r="1"/>
			<circle cx="593.5" cy="357" r="1"/>
			<circle cx="600.8" cy="357" r="1"/>
			<circle cx="608.2" cy="357" r="1"/>
			<circle cx="615.6" cy="357" r="1"/>
			<circle cx="622.9" cy="357" r="1"/>
			<circle cx="630.3" cy="357" r="1"/>
			<circle cx="637.7" cy="357" r="1"/>
			<circle cx="645" cy="357" r="1"/>
			<circle cx="652.4" cy="357" r="1"/>
			<circle cx="659.8" cy="357" r="1"/>
			<circle cx="667.1" cy="357" r="1"/>
			<circle cx="674.5" cy="357" r="1"/>
			<circle cx="681.8" cy="357" r="1"/>
			<circle cx="689.2" cy="357" r="1"/>
			<circle cx="696.6" cy="357" r="1"/>
			<circle cx="703.9" cy="357" r="1"/>
			<circle cx="711.3" cy="357" r="1"/>
			<circle cx="718.7" cy="357" r="1"/>
			<circle cx="726" cy="357" r="1"/>
			<circle cx="733.4" cy="357" r="1"/>
			<circle cx="740.8" cy="357" r="1"/>
			<circle cx="748.1" cy="357" r="1"/>
			<circle cx="755.5" cy="357" r="1"/>
		</g>
		<g>
			<circle cx="298.9" cy="371.8" r="1"/>
			<circle cx="291.5" cy="371.8" r="1"/>
			<circle cx="306.2" cy="371.8" r="1"/>
			<circle cx="313.6" cy="371.8" r="1"/>
			<circle cx="321" cy="371.8" r="1"/>
			<circle cx="328.3" cy="371.8" r="1"/>
			<circle cx="335.7" cy="371.8" r="1"/>
			<circle cx="343.1" cy="371.8" r="1"/>
			<circle cx="350.4" cy="371.8" r="1"/>
			<circle cx="357.8" cy="371.8" r="1"/>
			<circle cx="365.2" cy="371.8" r="1"/>
			<circle cx="372.5" cy="371.8" r="1"/>
			<circle cx="379.9" cy="371.8" r="1"/>
			<circle cx="387.2" cy="371.8" r="1"/>
			<circle cx="394.6" cy="371.8" r="1"/>
			<circle cx="402" cy="371.8" r="1"/>
			<circle cx="409.3" cy="371.8" r="1"/>
			<circle cx="416.7" cy="371.8" r="1"/>
			<circle cx="424.1" cy="371.8" r="1"/>
			<circle cx="431.4" cy="371.8" r="1"/>
			<circle cx="438.8" cy="371.8" r="1"/>
			<circle cx="446.2" cy="371.8" r="1"/>
			<circle cx="453.5" cy="371.8" r="1"/>
			<circle cx="460.9" cy="371.8" r="1"/>
			<circle cx="468.3" cy="371.8" r="1"/>
			<circle cx="475.6" cy="371.8" r="1"/>
			<circle cx="483" cy="371.8" r="1"/>
			<circle cx="490.4" cy="371.8" r="1"/>
			<circle cx="497.7" cy="371.8" r="1"/>
			<circle cx="505.1" cy="371.8" r="1"/>
			<circle cx="512.5" cy="371.8" r="1"/>
			<circle cx="519.8" cy="371.8" r="1"/>
			<circle cx="527.2" cy="371.8" r="1"/>
			<circle cx="534.5" cy="371.8" r="1"/>
			<circle cx="541.9" cy="371.8" r="1"/>
			<circle cx="549.3" cy="371.8" r="1"/>
			<circle cx="556.6" cy="371.8" r="1"/>
			<circle cx="564" cy="371.8" r="1"/>
			<circle cx="571.4" cy="371.8" r="1"/>
			<circle cx="578.7" cy="371.8" r="1"/>
			<circle cx="586.1" cy="371.8" r="1"/>
			<circle cx="593.5" cy="371.8" r="1"/>
			<circle cx="600.8" cy="371.8" r="1"/>
			<circle cx="608.2" cy="371.8" r="1"/>
			<circle cx="615.6" cy="371.8" r="1"/>
			<circle cx="622.9" cy="371.8" r="1"/>
			<circle cx="630.3" cy="371.8" r="1"/>
			<circle cx="637.7" cy="371.8" r="1"/>
			<circle cx="645" cy="371.8" r="1"/>
			<circle cx="652.4" cy="371.8" r="1"/>
			<circle cx="659.8" cy="371.8" r="1"/>
			<circle cx="667.1" cy="371.8" r="1"/>
			<circle cx="674.5" cy="371.8" r="1"/>
			<circle cx="681.8" cy="371.8" r="1"/>
			<circle cx="689.2" cy="371.8" r="1"/>
			<circle cx="696.6" cy="371.8" r="1"/>
			<circle cx="703.9" cy="371.8" r="1"/>
			<circle cx="711.3" cy="371.8" r="1"/>
			<circle cx="718.7" cy="371.8" r="1"/>
			<circle cx="726" cy="371.8" r="1"/>
			<circle cx="733.4" cy="371.8" r="1"/>
			<circle cx="740.8" cy="371.8" r="1"/>
			<circle cx="748.1" cy="371.8" r="1"/>
			<circle cx="755.5" cy="371.8" r="1"/>
		</g>
		<g>
			<circle cx="298.9" cy="386.7" r="1"/>
			<circle cx="291.5" cy="386.7" r="1"/>
			<circle cx="306.2" cy="386.7" r="1"/>
			<circle cx="313.6" cy="386.7" r="1"/>
			<circle cx="321" cy="386.7" r="1"/>
			<circle cx="328.3" cy="386.7" r="1"/>
			<circle cx="335.7" cy="386.7" r="1"/>
			<circle cx="343.1" cy="386.7" r="1"/>
			<circle cx="350.4" cy="386.7" r="1"/>
			<circle cx="357.8" cy="386.7" r="1"/>
			<circle cx="365.2" cy="386.7" r="1"/>
			<circle cx="372.5" cy="386.7" r="1"/>
			<circle cx="379.9" cy="386.7" r="1"/>
			<circle cx="387.2" cy="386.7" r="1"/>
			<circle cx="394.6" cy="386.7" r="1"/>
			<circle cx="402" cy="386.7" r="1"/>
			<circle cx="409.3" cy="386.7" r="1"/>
			<circle cx="416.7" cy="386.7" r="1"/>
			<circle cx="424.1" cy="386.7" r="1"/>
			<circle cx="431.4" cy="386.7" r="1"/>
			<circle cx="438.8" cy="386.7" r="1"/>
			<circle cx="446.2" cy="386.7" r="1"/>
			<circle cx="453.5" cy="386.7" r="1"/>
			<circle cx="460.9" cy="386.7" r="1"/>
			<circle cx="468.3" cy="386.7" r="1"/>
			<circle cx="475.6" cy="386.7" r="1"/>
			<circle cx="483" cy="386.7" r="1"/>
			<circle cx="490.4" cy="386.7" r="1"/>
			<circle cx="497.7" cy="386.7" r="1"/>
			<circle cx="505.1" cy="386.7" r="1"/>
			<circle cx="512.5" cy="386.7" r="1"/>
			<circle cx="519.8" cy="386.7" r="1"/>
			<circle cx="527.2" cy="386.7" r="1"/>
			<circle cx="534.5" cy="386.7" r="1"/>
			<circle cx="541.9" cy="386.7" r="1"/>
			<circle cx="549.3" cy="386.7" r="1"/>
			<circle cx="556.6" cy="386.7" r="1"/>
			<circle cx="564" cy="386.7" r="1"/>
			<circle cx="571.4" cy="386.7" r="1"/>
			<circle cx="578.7" cy="386.7" r="1"/>
			<circle cx="586.1" cy="386.7" r="1"/>
			<circle cx="593.5" cy="386.7" r="1"/>
			<circle cx="600.8" cy="386.7" r="1"/>
			<circle cx="608.2" cy="386.7" r="1"/>
			<circle cx="615.6" cy="386.7" r="1"/>
			<circle cx="622.9" cy="386.7" r="1"/>
			<circle cx="630.3" cy="386.7" r="1"/>
			<circle cx="637.7" cy="386.7" r="1"/>
			<circle cx="645" cy="386.7" r="1"/>
			<circle cx="652.4" cy="386.7" r="1"/>
			<circle cx="659.8" cy="386.7" r="1"/>
			<circle cx="667.1" cy="386.7" r="1"/>
			<circle cx="674.5" cy="386.7" r="1"/>
			<circle cx="681.8" cy="386.7" r="1"/>
			<circle cx="689.2" cy="386.7" r="1"/>
			<circle cx="696.6" cy="386.7" r="1"/>
			<circle cx="703.9" cy="386.7" r="1"/>
			<circle cx="711.3" cy="386.7" r="1"/>
			<circle cx="718.7" cy="386.7" r="1"/>
			<circle cx="726" cy="386.7" r="1"/>
			<circle cx="733.4" cy="386.7" r="1"/>
			<circle cx="740.8" cy="386.7" r="1"/>
			<circle cx="748.1" cy="386.7" r="1"/>
			<circle cx="755.5" cy="386.7" r="1"/>
		</g>
		<g>
			<circle cx="298.9" cy="401.5" r="1"/>
			<circle cx="291.5" cy="401.5" r="1"/>
			<circle cx="306.2" cy="401.5" r="1"/>
			<circle cx="313.6" cy="401.5" r="1"/>
			<circle cx="321" cy="401.5" r="1"/>
			<circle cx="328.3" cy="401.5" r="1"/>
			<circle cx="335.7" cy="401.5" r="1"/>
			<circle cx="343.1" cy="401.5" r="1"/>
			<circle cx="350.4" cy="401.5" r="1"/>
			<circle cx="357.8" cy="401.5" r="1"/>
			<circle cx="365.2" cy="401.5" r="1"/>
			<circle cx="372.5" cy="401.5" r="1"/>
			<circle cx="379.9" cy="401.5" r="1"/>
			<circle cx="387.2" cy="401.5" r="1"/>
			<circle cx="394.6" cy="401.5" r="1"/>
			<circle cx="402" cy="401.5" r="1"/>
			<circle cx="409.3" cy="401.5" r="1"/>
			<circle cx="416.7" cy="401.5" r="1"/>
			<circle cx="424.1" cy="401.5" r="1"/>
			<circle cx="431.4" cy="401.5" r="1"/>
			<circle cx="438.8" cy="401.5" r="1"/>
			<circle cx="446.2" cy="401.5" r="1"/>
			<circle cx="453.5" cy="401.5" r="1"/>
			<circle cx="460.9" cy="401.5" r="1"/>
			<circle cx="468.3" cy="401.5" r="1"/>
			<circle cx="475.6" cy="401.5" r="1"/>
			<circle cx="483" cy="401.5" r="1"/>
			<circle cx="490.4" cy="401.5" r="1"/>
			<circle cx="497.7" cy="401.5" r="1"/>
			<circle cx="505.1" cy="401.5" r="1"/>
			<circle cx="512.5" cy="401.5" r="1"/>
			<circle cx="519.8" cy="401.5" r="1"/>
			<circle cx="527.2" cy="401.5" r="1"/>
			<circle cx="534.5" cy="401.5" r="1"/>
			<circle cx="541.9" cy="401.5" r="1"/>
			<circle cx="549.3" cy="401.5" r="1"/>
			<circle cx="556.6" cy="401.5" r="1"/>
			<circle cx="564" cy="401.5" r="1"/>
			<circle cx="571.4" cy="401.5" r="1"/>
			<circle cx="578.7" cy="401.5" r="1"/>
			<circle cx="586.1" cy="401.5" r="1"/>
			<circle cx="593.5" cy="401.5" r="1"/>
			<circle cx="600.8" cy="401.5" r="1"/>
			<circle cx="608.2" cy="401.5" r="1"/>
			<circle cx="615.6" cy="401.5" r="1"/>
			<circle cx="622.9" cy="401.5" r="1"/>
			<circle cx="630.3" cy="401.5" r="1"/>
			<circle cx="637.7" cy="401.5" r="1"/>
			<circle cx="645" cy="401.5" r="1"/>
			<circle cx="652.4" cy="401.5" r="1"/>
			<circle cx="659.8" cy="401.5" r="1"/>
			<circle cx="667.1" cy="401.5" r="1"/>
			<circle cx="674.5" cy="401.5" r="1"/>
			<circle cx="681.8" cy="401.5" r="1"/>
			<circle cx="689.2" cy="401.5" r="1"/>
			<circle cx="696.6" cy="401.5" r="1"/>
			<circle cx="703.9" cy="401.5" r="1"/>
			<circle cx="711.3" cy="401.5" r="1"/>
			<circle cx="718.7" cy="401.5" r="1"/>
			<circle cx="726" cy="401.5" r="1"/>
			<circle cx="733.4" cy="401.5" r="1"/>
			<circle cx="740.8" cy="401.5" r="1"/>
			<circle cx="748.1" cy="401.5" r="1"/>
			<circle cx="755.5" cy="401.5" r="1"/>
		</g>
	</g>
	<line class="st0" x1="557.6" y1="206.5" x2="557.6" y2="223.5"/>
	<line class="st0" x1="524" y1="206.5" x2="524" y2="223.5"/>
	<line class="st0" x1="695" y1="206.5" x2="695" y2="223.5"/>
	<line class="st0" x1="490.4" y1="206.5" x2="490.4" y2="223.5"/>
	<g>
		<g>
			<rect x="725.5" y="211.5" width="1" height="7"/>
		</g>
		<g>
			<rect x="722.5" y="214.5" width="7" height="1"/>
		</g>
	</g>
	<g>
		<g>
			<rect x="657.5" y="214.5" width="7" height="1"/>
		</g>
	</g>
	<g>
		<path d="M628.2,159.5v-7.3h2.6c0.8,0,1.4,0.1,1.7,0.4c0.4,0.3,0.6,0.7,0.6,1.3v0.4c0,0.4-0.1,0.6-0.3,0.8s-0.4,0.3-0.8,0.4v0.3
			c0.4,0,0.7,0.2,0.9,0.4s0.3,0.6,0.3,1v0.4c0,0.6-0.2,1.1-0.6,1.4s-1.1,0.5-1.9,0.5L628.2,159.5L628.2,159.5z M629.5,155.2h1.1
			c0.4,0,0.6-0.1,0.8-0.2c0.2-0.1,0.2-0.3,0.2-0.6v-0.3c0-0.3-0.1-0.5-0.2-0.6c-0.2-0.1-0.4-0.2-0.8-0.2h-1.1V155.2z M629.5,158.5
			h1.2c0.4,0,0.7-0.1,0.9-0.2s0.3-0.4,0.3-0.7v-0.4c0-0.3-0.1-0.6-0.3-0.7s-0.5-0.2-0.9-0.2h-1.2V158.5z"/>
		<path d="M634.5,159.5v-7.3h2.7c0.8,0,1.4,0.2,1.8,0.5c0.4,0.3,0.6,0.8,0.6,1.5v0.9c0,0.7-0.2,1.2-0.6,1.5c-0.4,0.3-1,0.5-1.8,0.5
			h-1.3v2.4L634.5,159.5L634.5,159.5z M635.9,156.1h1.3c0.4,0,0.7-0.1,0.9-0.2c0.2-0.1,0.3-0.4,0.3-0.8v-0.8c0-0.4-0.1-0.6-0.3-0.8
			c-0.2-0.1-0.5-0.2-0.9-0.2h-1.3V156.1z"/>
		<path d="M642.9,157.5l-1.1-3.2l0.1,5.2h-1.2v-7.3h1.5l1.3,3.9l1.2-3.9h1.4v7.3h-1.2l0.1-5.2l-1.1,3.1L642.9,157.5L642.9,157.5z"/>
		<path d="M656.1,156c-0.3,0-0.6-0.1-0.8-0.2c-0.2-0.1-0.3-0.3-0.3-0.6v-0.5c0-0.3,0.1-0.5,0.3-0.6s0.5-0.2,0.8-0.2s0.6,0.1,0.8,0.2
			s0.3,0.4,0.3,0.6v0.5c0,0.3-0.1,0.5-0.3,0.6C656.7,155.9,656.5,156,656.1,156z M656.1,159.6c-0.3,0-0.6-0.1-0.8-0.2
			c-0.2-0.1-0.3-0.3-0.3-0.6v-0.5c0-0.3,0.1-0.5,0.3-0.6s0.5-0.2,0.8-0.2s0.6,0.1,0.8,0.2c0.2,0.1,0.3,0.4,0.3,0.6v0.5
			c0,0.3-0.1,0.5-0.3,0.6C656.7,159.5,656.5,159.6,656.1,159.6z"/>
	</g>
	<g>
		<path d="M288.3,159.5v-1h1.7v-3.4h-1.7v-1h3.1v4.4h1.7v1H288.3z M290.7,153.1c-0.3,0-0.5,0-0.7-0.1s-0.3-0.2-0.3-0.5v-0.1
			c0-0.2,0.1-0.4,0.3-0.5c0.2-0.1,0.4-0.1,0.7-0.1s0.5,0,0.7,0.1s0.3,0.3,0.3,0.5v0.1c0,0.2-0.1,0.4-0.3,0.5S291,153.1,290.7,153.1z
			"/>
		<path d="M294.6,159.5V154h1.4v1h0.3c0.1-0.3,0.4-0.6,0.7-0.8s0.6-0.3,1-0.3c0.5,0,0.9,0.2,1.2,0.5c0.3,0.3,0.4,0.7,0.4,1.3v3.8
			h-1.4V156c0-0.3-0.1-0.5-0.2-0.7s-0.3-0.2-0.6-0.2c-0.2,0-0.5,0.1-0.7,0.2s-0.5,0.3-0.7,0.6v3.7h-1.4V159.5z"/>
		<path d="M303.6,159.6c-0.2,0-0.4,0-0.6-0.1c-0.2,0-0.4-0.1-0.6-0.2v2H301V154h1.4v1h0.3c0.1-0.3,0.4-0.6,0.7-0.8s0.6-0.3,1-0.3
			c0.5,0,0.9,0.2,1.2,0.5c0.3,0.3,0.4,0.8,0.4,1.4v1.6c0,0.6-0.2,1.1-0.6,1.5S304.3,159.6,303.6,159.6z M303.4,158.5
			c0.4,0,0.7-0.1,0.8-0.2c0.2-0.2,0.3-0.4,0.3-0.8v-1.4c0-0.3-0.1-0.6-0.2-0.8s-0.4-0.2-0.6-0.2s-0.5,0.1-0.7,0.2
			c-0.2,0.1-0.4,0.3-0.7,0.5v2.5c0.2,0.1,0.3,0.2,0.5,0.2C303,158.5,303.2,158.5,303.4,158.5z"/>
		<path d="M309,159.6c-0.5,0-0.9-0.2-1.2-0.5c-0.3-0.3-0.5-0.7-0.5-1.3V154h1.4v3.4c0,0.3,0.1,0.6,0.2,0.7c0.1,0.2,0.3,0.2,0.6,0.2
			c0.2,0,0.5-0.1,0.7-0.2c0.2-0.1,0.5-0.4,0.7-0.6V154h1.4v5.5h-1.4v-1h-0.3c-0.1,0.3-0.4,0.6-0.7,0.8S309.3,159.6,309,159.6z"/>
		<path d="M317.1,159.6c-0.7,0-1.2-0.2-1.6-0.5c-0.4-0.3-0.6-0.8-0.6-1.4v-2.6h-1.4v-1h1.4v-1.8h1.4v1.8h2.2v1h-2.2v2.4
			c0,0.3,0.1,0.6,0.2,0.8c0.2,0.2,0.4,0.2,0.7,0.2c0.2,0,0.4,0,0.6,0c0.2,0,0.4-0.1,0.6-0.1l0.2,1c-0.2,0.1-0.4,0.1-0.6,0.2
			S317.4,159.6,317.1,159.6z"/>
	</g>
	<g>
		<path d="M289.5,198.5h-1.4v-7.3h2.9c0.8,0,1.4,0.2,1.7,0.5s0.6,0.8,0.6,1.5v0.6c0,0.5-0.1,1-0.4,1.3s-0.6,0.5-1.1,0.6l1.7,2.8H292
			l-1.6-2.7h-0.9V198.5z M289.5,194.7h1.4c0.4,0,0.7-0.1,0.9-0.2c0.2-0.1,0.3-0.4,0.3-0.8v-0.5c0-0.3-0.1-0.6-0.3-0.7
			s-0.5-0.2-0.9-0.2h-1.4V194.7z"/>
		<path d="M299.6,197.3c-0.2,0.5-0.5,0.8-0.8,1c-0.4,0.2-0.9,0.3-1.7,0.3c-0.7,0-1.3-0.2-1.8-0.5s-0.7-0.9-0.7-1.6V195
			c0-0.7,0.2-1.2,0.7-1.6c0.4-0.4,1-0.5,1.8-0.5s1.4,0.2,1.8,0.5c0.4,0.4,0.7,0.9,0.7,1.6v1h-3.5v0.5c0,0.4,0.1,0.6,0.3,0.8
			c0.2,0.2,0.5,0.3,0.9,0.3c0.3,0,0.6-0.1,0.8-0.2c0.2-0.1,0.4-0.3,0.5-0.6L299.6,197.3z M296,195v0.3h2.2V195
			c0-0.4-0.1-0.7-0.3-0.9c-0.2-0.2-0.4-0.3-0.8-0.3s-0.7,0.1-0.8,0.3C296,194.3,296,194.6,296,195z"/>
		<path d="M306.2,198.8c0,0.5-0.2,0.9-0.6,1.2s-0.8,0.4-1.4,0.4h-1.6c-0.6,0-1.1-0.1-1.5-0.4s-0.5-0.5-0.5-1c0-0.3,0.1-0.5,0.3-0.7
			c0.2-0.2,0.4-0.3,0.7-0.3v-0.2c-0.2-0.1-0.4-0.2-0.5-0.3s-0.2-0.4-0.2-0.6c0-0.3,0.1-0.6,0.3-0.8c0.2-0.2,0.5-0.3,0.9-0.4v-0.2
			c-0.3-0.1-0.5-0.2-0.7-0.4c-0.1-0.2-0.2-0.4-0.2-0.6v-0.1c0-0.4,0.2-0.8,0.6-1.1s0.9-0.4,1.5-0.4h3v0.9l-1.5-0.2v0.2
			c0.2,0.1,0.4,0.2,0.5,0.4s0.2,0.4,0.2,0.6v0.1c0,0.4-0.2,0.8-0.5,1c-0.4,0.2-0.9,0.4-1.5,0.4h-0.9c-0.2,0-0.3,0-0.4,0.1
			s-0.1,0.2-0.1,0.4s0.1,0.3,0.2,0.4c0.1,0.1,0.3,0.1,0.5,0.1h1.8c0.6,0,1,0.1,1.4,0.4C306,198,306.2,198.3,306.2,198.8z
			 M302.6,199.5h1.7c0.2,0,0.4,0,0.6-0.1s0.2-0.2,0.2-0.5s-0.1-0.4-0.2-0.5s-0.3-0.1-0.5-0.1H302v0.5c0,0.2,0.1,0.4,0.2,0.5
			C302.2,199.5,302.4,199.5,302.6,199.5z M303.3,195.6c0.3,0,0.5-0.1,0.7-0.2c0.1-0.1,0.2-0.3,0.2-0.5v-0.4c0-0.2-0.1-0.4-0.2-0.5
			s-0.4-0.2-0.7-0.2c-0.3,0-0.5,0.1-0.7,0.2s-0.2,0.3-0.2,0.5v0.4c0,0.2,0.1,0.4,0.2,0.5C302.7,195.6,302.9,195.6,303.3,195.6z"/>
		<path d="M307.3,198.5v-7.3h5.1v1.1h-3.7v1.7h3.3v1.1h-3.3v2.3h3.7v1.1L307.3,198.5L307.3,198.5z"/>
		<path d="M317.3,198.5l-1.2-1.8l-1.2,1.8h-1.4l1.9-2.8l-1.8-2.7h1.4l1.2,1.7l1.1-1.7h1.4l-1.9,2.6l1.9,2.8L317.3,198.5L317.3,198.5
			z"/>
		<path d="M322.7,198.6c-0.2,0-0.4,0-0.6-0.1c-0.2,0-0.4-0.1-0.6-0.2v2h-1.4V193h1.4v1h0.3c0.1-0.3,0.4-0.6,0.7-0.8s0.6-0.3,1-0.3
			c0.5,0,0.9,0.2,1.2,0.5s0.4,0.8,0.4,1.4v1.6c0,0.6-0.2,1.1-0.6,1.5S323.4,198.6,322.7,198.6z M322.5,197.5c0.4,0,0.7-0.1,0.8-0.2
			c0.2-0.2,0.3-0.4,0.3-0.8v-1.4c0-0.3-0.1-0.6-0.2-0.8s-0.4-0.2-0.6-0.2c-0.2,0-0.5,0.1-0.7,0.2c-0.2,0.1-0.4,0.3-0.7,0.5v2.5
			c0.2,0.1,0.3,0.2,0.5,0.2S322.3,197.5,322.5,197.5z"/>
	</g>
	<g>
		<path d="M389.1,257.6c-0.9,0-1.5-0.2-2-0.6s-0.7-0.9-0.7-1.7v-1.6c0-0.8,0.2-1.3,0.7-1.7c0.4-0.4,1.1-0.6,2-0.6
			c0.8,0,1.4,0.2,1.8,0.5c0.4,0.4,0.6,0.9,0.7,1.5l-1,0.1c0-0.4-0.2-0.7-0.4-0.9c-0.2-0.2-0.6-0.3-1.1-0.3s-1,0.1-1.2,0.3
			c-0.3,0.2-0.4,0.6-0.4,1.1v1.6c0,0.5,0.1,0.8,0.4,1c0.3,0.2,0.7,0.3,1.2,0.3s0.8-0.1,1.1-0.3c0.2-0.2,0.4-0.4,0.4-0.8l1,0.1
			c0,0.6-0.3,1.1-0.7,1.4C390.5,257.4,389.9,257.6,389.1,257.6z"/>
		<path d="M394,253.2v4.3h-0.9v-6h0.9v0.8h0.2c0.1-0.3,0.3-0.5,0.5-0.7s0.4-0.2,0.7-0.2s0.5,0.1,0.7,0.2c0.2,0.2,0.3,0.4,0.4,0.7
			h0.2c0.1-0.3,0.3-0.5,0.5-0.7s0.4-0.2,0.7-0.2s0.6,0.1,0.8,0.4s0.3,0.6,0.3,1.1v4.6h-0.9v-4.4c0-0.3,0-0.5-0.1-0.7
			s-0.2-0.2-0.4-0.2c-0.1,0-0.3,0.1-0.5,0.3c-0.2,0.2-0.4,0.4-0.6,0.8v4.3h-1v-4.4c0-0.3,0-0.5-0.1-0.7s-0.2-0.2-0.4-0.2
			c-0.1,0-0.3,0.1-0.5,0.3C394.4,252.6,394.2,252.9,394,253.2z"/>
		<path d="M404.2,256.5c-0.2,0.3-0.4,0.6-0.7,0.8c-0.3,0.2-0.7,0.3-1,0.3c-0.6,0-1.1-0.2-1.4-0.6s-0.5-1-0.5-1.7v-1.6
			c0-0.7,0.2-1.3,0.7-1.7s1.1-0.6,1.9-0.6c0.2,0,0.5,0,0.7,0.1c0.2,0,0.5,0.1,0.7,0.2v-2.2h1v8h-1v-1L404.2,256.5L404.2,256.5z
			 M402.7,256.6c0.3,0,0.6-0.1,0.9-0.3s0.6-0.4,0.9-0.8v-2.9c-0.2-0.1-0.4-0.2-0.7-0.3s-0.5-0.1-0.8-0.1c-0.5,0-0.9,0.1-1.2,0.4
			c-0.3,0.2-0.4,0.6-0.4,1.1v1.6c0,0.4,0.1,0.8,0.3,1C402,256.5,402.3,256.6,402.7,256.6z"/>
		<path d="M417,257.6c-0.8,0-1.4-0.2-1.9-0.6c-0.4-0.4-0.6-1-0.6-1.7v-1.6c0-0.7,0.2-1.3,0.7-1.7c0.4-0.4,1.1-0.6,1.9-0.6
			c0.8,0,1.4,0.2,1.8,0.6c0.4,0.4,0.6,1,0.6,1.7v1.6c0,0.7-0.2,1.3-0.6,1.7C418.4,257.4,417.8,257.6,417,257.6z M417,256.7
			c0.5,0,0.9-0.1,1.1-0.3c0.2-0.2,0.4-0.6,0.4-1v-1.6c0-0.5-0.1-0.8-0.4-1.1s-0.6-0.3-1.1-0.3s-0.9,0.1-1.1,0.3
			c-0.2,0.2-0.4,0.6-0.4,1.1v1.6c0,0.5,0.1,0.8,0.4,1C416.1,256.6,416.5,256.7,417,256.7z"/>
		<path d="M422,257.5v-6h1v1h0.3c0.1-0.4,0.4-0.7,0.6-0.8c0.3-0.2,0.6-0.3,1-0.3s0.8,0.1,1.1,0.4s0.5,0.7,0.5,1.3v0.9h-1v-0.5
			c0-0.4-0.1-0.7-0.3-0.8c-0.2-0.2-0.4-0.3-0.8-0.3c-0.3,0-0.6,0.1-0.9,0.2s-0.5,0.4-0.7,0.7v4.2L422,257.5L422,257.5z"/>
		<path d="M438.1,257.6c-0.9,0-1.5-0.2-2-0.6s-0.7-0.9-0.7-1.7v-1.6c0-0.8,0.2-1.3,0.7-1.7c0.4-0.4,1.1-0.6,2-0.6
			c0.8,0,1.4,0.2,1.8,0.5c0.4,0.4,0.6,0.9,0.7,1.5l-1,0.1c0-0.4-0.2-0.7-0.4-0.9c-0.2-0.2-0.6-0.3-1.1-0.3s-1,0.1-1.2,0.3
			c-0.3,0.2-0.4,0.6-0.4,1.1v1.6c0,0.5,0.1,0.8,0.4,1c0.3,0.2,0.7,0.3,1.2,0.3s0.8-0.1,1.1-0.3c0.2-0.2,0.4-0.4,0.4-0.8l1,0.1
			c0,0.6-0.3,1.1-0.7,1.4C439.5,257.4,438.9,257.6,438.1,257.6z"/>
		<path d="M446,257.6c-0.7,0-1.2-0.2-1.5-0.5c-0.4-0.3-0.5-0.8-0.5-1.5v-3.2h-1.7v-0.9h1.7v-2h1v2h2.6v0.9H445v3.1
			c0,0.4,0.1,0.7,0.3,0.9c0.2,0.2,0.5,0.3,0.9,0.3c0.3,0,0.5,0,0.7-0.1c0.2,0,0.4-0.1,0.6-0.1l0.2,0.9c-0.2,0.1-0.5,0.1-0.7,0.2
			C446.6,257.6,446.3,257.6,446,257.6z"/>
		<path d="M450,257.5v-6h1v1h0.3c0.1-0.4,0.4-0.7,0.6-0.8c0.3-0.2,0.6-0.3,1-0.3s0.8,0.1,1.1,0.4s0.5,0.7,0.5,1.3v0.9h-1v-0.5
			c0-0.4-0.1-0.7-0.3-0.8c-0.2-0.2-0.4-0.3-0.8-0.3c-0.3,0-0.6,0.1-0.9,0.2s-0.5,0.4-0.7,0.7v4.2L450,257.5L450,257.5z"/>
		<path d="M456.5,257.5v-0.9h2v-6.2h-2v-0.9h3v7.1h2v0.9H456.5z"/>
		<path d="M472.5,257.1v-2.6h-2.3v-1h2.3v-2.6h1v2.6h2.3v1h-2.3v2.6H472.5z"/>
		<path d="M484.5,257.5v-0.9h2v-4.2h-2v-0.9h3v5.1h2v0.9H484.5z M487,250.4c-0.3,0-0.5,0-0.6-0.1c-0.2-0.1-0.2-0.2-0.2-0.4v-0.1
			c0-0.2,0.1-0.4,0.2-0.5c0.2-0.1,0.4-0.1,0.6-0.1c0.3,0,0.5,0,0.6,0.1c0.2,0.1,0.2,0.2,0.2,0.5v0.1c0,0.2-0.1,0.4-0.2,0.4
			C487.4,250.4,487.2,250.4,487,250.4z"/>
		<path d="M498.2,253.1v-1h5.6v1H498.2z M498.2,255.9v-1h5.6v1H498.2z"/>
		<path d="M516,257.6c-0.7,0-1.2-0.2-1.5-0.5c-0.4-0.3-0.5-0.8-0.5-1.5v-3.2h-1.7v-0.9h1.7v-2h1v2h2.6v0.9H515v3.1
			c0,0.4,0.1,0.7,0.3,0.9c0.2,0.2,0.5,0.3,0.9,0.3c0.3,0,0.5,0,0.7-0.1c0.2,0,0.4-0.1,0.6-0.1l0.2,0.9c-0.2,0.1-0.5,0.1-0.7,0.2
			C516.6,257.6,516.3,257.6,516,257.6z"/>
		<path d="M522,257.6c-0.8,0-1.4-0.2-1.9-0.6c-0.4-0.4-0.6-1-0.6-1.7v-1.6c0-0.7,0.2-1.3,0.7-1.7c0.4-0.4,1.1-0.6,1.9-0.6
			c0.8,0,1.4,0.2,1.8,0.6c0.4,0.4,0.6,1,0.6,1.7v1.6c0,0.7-0.2,1.3-0.6,1.7C523.4,257.4,522.8,257.6,522,257.6z M522,256.7
			c0.5,0,0.9-0.1,1.1-0.3c0.2-0.2,0.4-0.6,0.4-1v-1.6c0-0.5-0.1-0.8-0.4-1.1s-0.6-0.3-1.1-0.3s-0.9,0.1-1.1,0.3
			c-0.2,0.2-0.4,0.6-0.4,1.1v1.6c0,0.5,0.1,0.8,0.4,1C521.1,256.6,521.5,256.7,522,256.7z"/>
		<path d="M532,258c0,0.5-0.2,0.9-0.6,1.2c-0.4,0.3-0.9,0.4-1.5,0.4H528c-0.6,0-1.1-0.1-1.5-0.4c-0.4-0.2-0.6-0.6-0.6-1.1
			c0-0.3,0.1-0.6,0.3-0.8c0.2-0.2,0.4-0.3,0.7-0.3v-0.2c-0.2,0-0.4-0.1-0.6-0.3c-0.1-0.2-0.2-0.4-0.2-0.7c0-0.3,0.1-0.5,0.3-0.8
			c0.2-0.2,0.5-0.4,0.9-0.4v-0.2c-0.3-0.1-0.5-0.3-0.7-0.5c-0.1-0.2-0.2-0.4-0.2-0.6V253c0-0.5,0.2-0.8,0.6-1.1
			c0.4-0.3,0.9-0.5,1.7-0.5h3v0.9l-1.5-0.2v0.2c0.3,0.1,0.5,0.2,0.6,0.4s0.2,0.4,0.2,0.6v0.3c0,0.5-0.2,0.8-0.5,1.1
			c-0.4,0.3-0.9,0.4-1.7,0.4h-1.3c-0.2,0-0.3,0-0.4,0.1c-0.1,0.1-0.1,0.2-0.1,0.5c0,0.2,0.1,0.4,0.2,0.5s0.3,0.2,0.6,0.2h2.3
			c0.6,0,1,0.1,1.4,0.4S532,257.4,532,258z M528,258.8h2c0.3,0,0.5-0.1,0.7-0.2s0.3-0.3,0.3-0.6c0-0.3-0.1-0.5-0.3-0.6
			s-0.4-0.2-0.7-0.2h-3.2v0.7c0,0.3,0.1,0.5,0.3,0.6C527.4,258.7,527.7,258.8,528,258.8z M528.8,254.4c0.4,0,0.7-0.1,0.9-0.2
			s0.3-0.4,0.3-0.7v-0.3c0-0.3-0.1-0.5-0.3-0.7c-0.2-0.1-0.5-0.2-0.9-0.2s-0.7,0.1-0.9,0.2s-0.3,0.4-0.3,0.7v0.3
			c0,0.3,0.1,0.5,0.3,0.7S528.4,254.4,528.8,254.4z"/>
		<path d="M539,258c0,0.5-0.2,0.9-0.6,1.2c-0.4,0.3-0.9,0.4-1.5,0.4H535c-0.6,0-1.1-0.1-1.5-0.4c-0.4-0.2-0.6-0.6-0.6-1.1
			c0-0.3,0.1-0.6,0.3-0.8c0.2-0.2,0.4-0.3,0.7-0.3v-0.2c-0.2,0-0.4-0.1-0.6-0.3c-0.1-0.2-0.2-0.4-0.2-0.7c0-0.3,0.1-0.5,0.3-0.8
			c0.2-0.2,0.5-0.4,0.9-0.4v-0.2c-0.3-0.1-0.5-0.3-0.7-0.5c-0.1-0.2-0.2-0.4-0.2-0.6V253c0-0.5,0.2-0.8,0.6-1.1
			c0.4-0.3,0.9-0.5,1.7-0.5h3v0.9l-1.5-0.2v0.2c0.3,0.1,0.5,0.2,0.6,0.4s0.2,0.4,0.2,0.6v0.3c0,0.5-0.2,0.8-0.5,1.1
			c-0.4,0.3-0.9,0.4-1.7,0.4h-1.3c-0.2,0-0.3,0-0.4,0.1c-0.1,0.1-0.1,0.2-0.1,0.5c0,0.2,0.1,0.4,0.2,0.5s0.3,0.2,0.6,0.2h2.3
			c0.6,0,1,0.1,1.4,0.4S539,257.4,539,258z M535,258.8h2c0.3,0,0.5-0.1,0.7-0.2s0.3-0.3,0.3-0.6c0-0.3-0.1-0.5-0.3-0.6
			s-0.4-0.2-0.7-0.2h-3.2v0.7c0,0.3,0.1,0.5,0.3,0.6C534.4,258.7,534.7,258.8,535,258.8z M535.8,254.4c0.4,0,0.7-0.1,0.9-0.2
			s0.3-0.4,0.3-0.7v-0.3c0-0.3-0.1-0.5-0.3-0.7c-0.2-0.1-0.5-0.2-0.9-0.2s-0.7,0.1-0.9,0.2s-0.3,0.4-0.3,0.7v0.3
			c0,0.3,0.1,0.5,0.3,0.7S535.4,254.4,535.8,254.4z"/>
		<path d="M540.5,257.5v-0.9h2v-6.2h-2v-0.9h3v7.1h2v0.9H540.5z"/>
		<path d="M552.5,256.2c-0.2,0.5-0.5,0.9-0.8,1.1c-0.4,0.2-0.9,0.3-1.7,0.3s-1.4-0.2-1.8-0.6c-0.4-0.4-0.7-1-0.7-1.7v-1.6
			c0-0.8,0.2-1.4,0.7-1.7c0.5-0.4,1.1-0.6,1.8-0.6c0.8,0,1.4,0.2,1.8,0.6c0.5,0.4,0.7,1,0.7,1.8v0.9h-4v0.6c0,0.5,0.1,0.9,0.4,1.1
			c0.2,0.2,0.6,0.3,1.1,0.3s0.8-0.1,1-0.2s0.4-0.3,0.5-0.6L552.5,256.2z M548.5,253.7v0.2h3v-0.2c0-0.5-0.1-0.9-0.4-1.2
			s-0.6-0.4-1.1-0.4s-0.9,0.1-1.1,0.4C548.6,252.8,548.5,253.2,548.5,253.7z"/>
		<path d="M561.5,257.5v-0.9h2v-4.2h-2v-0.9h3v5.1h2v0.9H561.5z M564,250.4c-0.3,0-0.5,0-0.6-0.1c-0.2-0.1-0.2-0.2-0.2-0.4v-0.1
			c0-0.2,0.1-0.4,0.2-0.5c0.2-0.1,0.4-0.1,0.6-0.1c0.3,0,0.5,0,0.6,0.1c0.2,0.1,0.2,0.2,0.2,0.5v0.1c0,0.2-0.1,0.4-0.2,0.4
			C564.4,250.4,564.2,250.4,564,250.4z"/>
		<path d="M568.5,257.5v-6h1v1h0.3c0.1-0.3,0.4-0.6,0.7-0.8c0.3-0.2,0.7-0.3,1.1-0.3c0.6,0,1.1,0.2,1.4,0.6c0.3,0.4,0.5,0.9,0.5,1.5
			v4h-1v-3.9c0-0.4-0.1-0.7-0.3-1c-0.2-0.2-0.5-0.3-0.9-0.3c-0.3,0-0.6,0.1-0.9,0.3c-0.3,0.2-0.6,0.4-0.9,0.8v4.1L568.5,257.5
			L568.5,257.5z"/>
		<path d="M578.1,257.6c-0.5,0-1-0.1-1.5-0.2s-0.9-0.4-1.3-0.7l0.5-0.8c0.3,0.3,0.7,0.5,1.1,0.6s0.8,0.2,1.2,0.2
			c0.3,0,0.7-0.1,1-0.2s0.5-0.3,0.5-0.7c0-0.3-0.1-0.5-0.4-0.6c-0.3-0.1-0.7-0.2-1.4-0.3c-0.7-0.1-1.3-0.3-1.7-0.5
			c-0.4-0.3-0.6-0.7-0.6-1.2c0-0.6,0.2-1.1,0.7-1.4s1-0.5,1.6-0.5c0.5,0,0.9,0.1,1.4,0.2c0.4,0.2,0.8,0.4,1.2,0.7l-0.5,0.8
			c-0.3-0.2-0.6-0.4-1-0.6c-0.4-0.1-0.7-0.2-1.1-0.2c-0.3,0-0.6,0.1-0.9,0.2s-0.4,0.3-0.4,0.7c0,0.3,0.1,0.5,0.4,0.6
			c0.2,0.1,0.7,0.2,1.4,0.3c0.8,0.1,1.3,0.3,1.7,0.6c0.4,0.3,0.6,0.7,0.6,1.2c0,0.6-0.3,1.1-0.8,1.4S578.7,257.6,578.1,257.6z"/>
		<path d="M587.5,256.2c-0.2,0.5-0.5,0.9-0.8,1.1c-0.4,0.2-0.9,0.3-1.7,0.3s-1.4-0.2-1.8-0.6c-0.4-0.4-0.7-1-0.7-1.7v-1.6
			c0-0.8,0.2-1.4,0.7-1.7c0.5-0.4,1.1-0.6,1.8-0.6c0.8,0,1.4,0.2,1.8,0.6c0.5,0.4,0.7,1,0.7,1.8v0.9h-4v0.6c0,0.5,0.1,0.9,0.4,1.1
			c0.2,0.2,0.6,0.3,1.1,0.3s0.8-0.1,1-0.2s0.4-0.3,0.5-0.6L587.5,256.2z M583.5,253.7v0.2h3v-0.2c0-0.5-0.1-0.9-0.4-1.2
			s-0.6-0.4-1.1-0.4s-0.9,0.1-1.1,0.4C583.6,252.8,583.5,253.2,583.5,253.7z"/>
		<path d="M590,257.5v-6h1v1h0.3c0.1-0.4,0.4-0.7,0.6-0.8c0.3-0.2,0.6-0.3,1-0.3s0.8,0.1,1.1,0.4s0.5,0.7,0.5,1.3v0.9h-1v-0.5
			c0-0.4-0.1-0.7-0.3-0.8c-0.2-0.2-0.4-0.3-0.8-0.3c-0.3,0-0.6,0.1-0.9,0.2s-0.5,0.4-0.7,0.7v4.2L590,257.5L590,257.5z"/>
		<path d="M600,257.6c-0.7,0-1.2-0.2-1.5-0.5c-0.4-0.3-0.5-0.8-0.5-1.5v-3.2h-1.7v-0.9h1.7v-2h1v2h2.6v0.9H599v3.1
			c0,0.4,0.1,0.7,0.3,0.9c0.2,0.2,0.5,0.3,0.9,0.3c0.3,0,0.5,0,0.7-0.1c0.2,0,0.4-0.1,0.6-0.1l0.2,0.9c-0.2,0.1-0.5,0.1-0.7,0.2
			C600.6,257.6,600.3,257.6,600,257.6z"/>
		<path d="M611,253.2v4.3h-0.9v-6h0.9v0.8h0.2c0.1-0.3,0.3-0.5,0.5-0.7s0.4-0.2,0.7-0.2s0.5,0.1,0.7,0.2c0.2,0.2,0.3,0.4,0.4,0.7
			h0.2c0.1-0.3,0.3-0.5,0.5-0.7s0.4-0.2,0.7-0.2s0.6,0.1,0.8,0.4s0.3,0.6,0.3,1.1v4.6h-0.9v-4.4c0-0.3,0-0.5-0.1-0.7
			s-0.2-0.2-0.4-0.2c-0.1,0-0.3,0.1-0.5,0.3c-0.2,0.2-0.4,0.4-0.6,0.8v4.3h-1v-4.4c0-0.3,0-0.5-0.1-0.7s-0.2-0.2-0.4-0.2
			c-0.1,0-0.3,0.1-0.5,0.3C611.4,252.6,611.2,252.9,611,253.2z"/>
		<path d="M620,257.6c-0.8,0-1.4-0.2-1.9-0.6c-0.4-0.4-0.6-1-0.6-1.7v-1.6c0-0.7,0.2-1.3,0.7-1.7c0.4-0.4,1.1-0.6,1.9-0.6
			c0.8,0,1.4,0.2,1.8,0.6c0.4,0.4,0.6,1,0.6,1.7v1.6c0,0.7-0.2,1.3-0.6,1.7C621.4,257.4,620.8,257.6,620,257.6z M620,256.7
			c0.5,0,0.9-0.1,1.1-0.3c0.2-0.2,0.4-0.6,0.4-1v-1.6c0-0.5-0.1-0.8-0.4-1.1s-0.6-0.3-1.1-0.3s-0.9,0.1-1.1,0.3
			c-0.2,0.2-0.4,0.6-0.4,1.1v1.6c0,0.5,0.1,0.8,0.4,1C619.1,256.6,619.5,256.7,620,256.7z"/>
		<path d="M628.2,256.5c-0.2,0.3-0.4,0.6-0.7,0.8c-0.3,0.2-0.7,0.3-1,0.3c-0.6,0-1.1-0.2-1.4-0.6s-0.5-1-0.5-1.7v-1.6
			c0-0.7,0.2-1.3,0.7-1.7s1.1-0.6,1.9-0.6c0.2,0,0.5,0,0.7,0.1c0.2,0,0.5,0.1,0.7,0.2v-2.2h1v8h-1v-1L628.2,256.5L628.2,256.5z
			 M626.7,256.6c0.3,0,0.6-0.1,0.9-0.3s0.6-0.4,0.9-0.8v-2.9c-0.2-0.1-0.4-0.2-0.7-0.3s-0.5-0.1-0.8-0.1c-0.5,0-0.9,0.1-1.2,0.4
			c-0.3,0.2-0.4,0.6-0.4,1.1v1.6c0,0.4,0.1,0.8,0.3,1C626,256.5,626.3,256.6,626.7,256.6z"/>
		<path d="M636.5,256.2c-0.2,0.5-0.5,0.9-0.8,1.1c-0.4,0.2-0.9,0.3-1.7,0.3s-1.4-0.2-1.8-0.6c-0.4-0.4-0.7-1-0.7-1.7v-1.6
			c0-0.8,0.2-1.4,0.7-1.7c0.5-0.4,1.1-0.6,1.8-0.6c0.8,0,1.4,0.2,1.8,0.6c0.5,0.4,0.7,1,0.7,1.8v0.9h-4v0.6c0,0.5,0.1,0.9,0.4,1.1
			c0.2,0.2,0.6,0.3,1.1,0.3s0.8-0.1,1-0.2s0.4-0.3,0.5-0.6L636.5,256.2z M632.5,253.7v0.2h3v-0.2c0-0.5-0.1-0.9-0.4-1.2
			s-0.6-0.4-1.1-0.4s-0.9,0.1-1.1,0.4C632.6,252.8,632.5,253.2,632.5,253.7z"/>
		<path d="M641,257.6c-0.3,0-0.6-0.1-0.8-0.2s-0.3-0.4-0.3-0.7v-0.3c0-0.3,0.1-0.6,0.3-0.7c0.2-0.2,0.5-0.2,0.8-0.2s0.6,0.1,0.8,0.2
			c0.2,0.2,0.3,0.4,0.3,0.7v0.3c0,0.3-0.1,0.6-0.3,0.7S641.3,257.6,641,257.6z"/>
	</g>
	<g>
		<path d="M459.8,198.6c-0.9,0-1.6-0.2-2-0.6s-0.7-1-0.7-1.9v-2.5c0-0.8,0.2-1.5,0.7-1.9c0.4-0.4,1.1-0.6,2-0.6s1.6,0.2,2,0.6
			s0.6,1.1,0.7,2l-1.4,0.1c0-0.6-0.2-1-0.3-1.2c-0.2-0.2-0.5-0.3-1-0.3s-0.8,0.1-1,0.3s-0.3,0.6-0.3,1.2v2.3c0,0.5,0.1,0.9,0.3,1.1
			c0.2,0.2,0.5,0.3,1,0.3s0.8-0.1,1-0.3s0.3-0.6,0.3-1.2l1.4,0.1c0,0.9-0.3,1.5-0.7,1.9C461.3,198.4,460.7,198.6,459.8,198.6z"/>
		<path d="M466,198.6c-0.8,0-1.4-0.2-1.8-0.5c-0.4-0.4-0.6-0.9-0.6-1.5v-1.5c0-0.7,0.2-1.2,0.6-1.6c0.4-0.4,1-0.5,1.8-0.5
			s1.4,0.2,1.8,0.6c0.4,0.4,0.6,0.9,0.6,1.6v1.5c0,0.6-0.2,1.2-0.6,1.5C467.4,198.4,466.8,198.6,466,198.6z M466,197.5
			c0.4,0,0.7-0.1,0.8-0.3c0.2-0.2,0.3-0.4,0.3-0.8V195c0-0.4-0.1-0.7-0.3-0.8s-0.5-0.3-0.8-0.3s-0.7,0.1-0.8,0.3s-0.3,0.4-0.3,0.8
			v1.4c0,0.4,0.1,0.7,0.3,0.8S465.7,197.5,466,197.5z"/>
		<path d="M470,198.5V193h1.4v1h0.3c0.1-0.3,0.4-0.6,0.7-0.8s0.6-0.3,1-0.3c0.5,0,0.9,0.2,1.2,0.5s0.4,0.7,0.4,1.3v3.8h-1.5V195
			c0-0.3-0.1-0.5-0.2-0.7c-0.1-0.2-0.3-0.2-0.6-0.2c-0.2,0-0.5,0.1-0.7,0.2s-0.5,0.3-0.7,0.6v3.7H470V198.5z"/>
		<path d="M479.7,198.6c-0.7,0-1.2-0.2-1.6-0.5c-0.4-0.3-0.6-0.8-0.6-1.4v-2.6h-1.4v-1h1.4v-1.8h1.4v1.8h2.2v1h-2.2v2.4
			c0,0.3,0.1,0.6,0.2,0.8c0.2,0.2,0.4,0.2,0.7,0.2c0.2,0,0.4,0,0.6,0c0.2,0,0.4-0.1,0.6-0.1l0.2,1c-0.2,0.1-0.4,0.1-0.6,0.2
			S480,198.6,479.7,198.6z"/>
		<path d="M483,198.5V193h1.4v1h0.3c0.1-0.4,0.3-0.6,0.6-0.8s0.6-0.2,1-0.2s0.8,0.1,1,0.4c0.3,0.3,0.4,0.7,0.4,1.1v0.9h-1.3v-0.5
			c0-0.3-0.1-0.5-0.2-0.6c-0.1-0.1-0.3-0.2-0.6-0.2c-0.2,0-0.5,0.1-0.7,0.2c-0.2,0.1-0.4,0.3-0.6,0.6v3.7L483,198.5L483,198.5z"/>
		<path d="M491.5,198.6c-0.8,0-1.4-0.2-1.8-0.5c-0.4-0.4-0.6-0.9-0.6-1.5v-1.5c0-0.7,0.2-1.2,0.6-1.6c0.4-0.4,1-0.5,1.8-0.5
			s1.4,0.2,1.8,0.6c0.4,0.4,0.6,0.9,0.6,1.6v1.5c0,0.6-0.2,1.2-0.6,1.5C492.9,198.4,492.3,198.6,491.5,198.6z M491.5,197.5
			c0.4,0,0.7-0.1,0.8-0.3c0.2-0.2,0.3-0.4,0.3-0.8V195c0-0.4-0.1-0.7-0.3-0.8s-0.5-0.3-0.8-0.3s-0.7,0.1-0.8,0.3s-0.3,0.4-0.3,0.8
			v1.4c0,0.4,0.1,0.7,0.3,0.8S491.1,197.5,491.5,197.5z"/>
		<path d="M495.5,198.5v-1h1.8v-5.2h-1.8v-1h3.1v6.2h1.7v1H495.5z"/>
	</g>
	<g>
		<path d="M467.3,218.6c-0.5,0-1-0.2-1.3-0.5c-0.3-0.4-0.5-0.8-0.5-1.4V213h0.8v3.5c0,0.4,0.1,0.8,0.3,1s0.5,0.3,0.9,0.3
			c0.3,0,0.6-0.1,0.9-0.2c0.3-0.2,0.6-0.4,0.9-0.8V213h0.8v5.5h-0.8v-0.9H469c-0.1,0.3-0.3,0.5-0.6,0.7
			C468,218.5,467.6,218.6,467.3,218.6z"/>
		<path d="M475.2,217.6c-0.2,0.3-0.4,0.6-0.7,0.7c-0.3,0.2-0.6,0.3-0.9,0.3c-0.6,0-1-0.2-1.3-0.5c-0.3-0.4-0.5-0.9-0.5-1.6V215
			c0-0.7,0.2-1.2,0.6-1.5c0.4-0.4,1-0.5,1.7-0.5c0.2,0,0.4,0,0.7,0.1c0.2,0,0.4,0.1,0.6,0.2v-2h0.8v7.3h-0.7v-0.9h-0.3V217.6z
			 M473.8,217.8c0.3,0,0.6-0.1,0.9-0.3c0.3-0.2,0.6-0.4,0.8-0.8V214c-0.2-0.1-0.4-0.2-0.6-0.3c-0.2-0.1-0.5-0.1-0.7-0.1
			c-0.5,0-0.9,0.1-1.2,0.3s-0.4,0.6-0.4,1.1v1.5c0,0.4,0.1,0.8,0.3,1S473.4,217.8,473.8,217.8z"/>
		<path d="M480.3,218.6c-0.2,0-0.4,0-0.7-0.1s-0.4-0.1-0.7-0.2v2h-0.8V213h0.8v0.9h0.3c0.2-0.3,0.4-0.5,0.7-0.7s0.6-0.3,0.9-0.3
			c0.6,0,1,0.2,1.3,0.6s0.5,0.9,0.5,1.6v1.4c0,0.6-0.2,1.2-0.6,1.5C481.6,218.4,481,218.6,480.3,218.6z M480.3,217.9
			c0.5,0,0.9-0.1,1.2-0.3s0.4-0.6,0.4-1.1V215c0-0.5-0.1-0.8-0.3-1s-0.5-0.3-0.9-0.3c-0.3,0-0.6,0.1-0.9,0.2
			c-0.3,0.2-0.6,0.4-0.8,0.8v2.8c0.2,0.1,0.4,0.2,0.6,0.3C479.8,217.9,480,217.9,480.3,217.9z"/>
	</g>
	<g>
		<path d="M499.7,218.6c-0.7,0-1.3-0.2-1.6-0.5c-0.4-0.4-0.6-0.9-0.6-1.5v-1.5c0-0.7,0.2-1.2,0.6-1.6c0.4-0.4,0.9-0.5,1.7-0.5
			c0.7,0,1.3,0.2,1.6,0.5c0.4,0.4,0.6,0.9,0.6,1.5v1.5c0,0.7-0.2,1.2-0.6,1.5S500.4,218.6,499.7,218.6z M499.7,217.9
			c0.5,0,0.9-0.1,1.1-0.3c0.2-0.2,0.4-0.5,0.4-1V215c0-0.5-0.1-0.8-0.4-1c-0.2-0.2-0.6-0.3-1.1-0.3s-0.9,0.1-1.1,0.3
			c-0.2,0.2-0.4,0.6-0.4,1v1.5c0,0.4,0.1,0.8,0.4,1C498.8,217.8,499.2,217.9,499.7,217.9z"/>
		<path d="M506.1,218.6c-0.5,0-0.9-0.1-1.3-0.2c-0.4-0.1-0.8-0.4-1.2-0.7l0.4-0.6c0.3,0.2,0.6,0.4,1,0.6c0.4,0.1,0.7,0.2,1.1,0.2
			c0.3,0,0.6-0.1,1-0.1c0.3-0.1,0.5-0.3,0.5-0.7c0-0.3-0.1-0.5-0.4-0.6c-0.2-0.1-0.7-0.2-1.4-0.3s-1.1-0.2-1.5-0.5s-0.5-0.6-0.5-1.1
			s0.2-0.9,0.6-1.2s0.9-0.4,1.4-0.4c0.4,0,0.9,0.1,1.2,0.2c0.4,0.2,0.8,0.4,1.1,0.6l-0.4,0.7c-0.3-0.2-0.6-0.4-0.9-0.6
			c-0.3-0.1-0.7-0.2-1-0.2s-0.6,0.1-0.8,0.2s-0.4,0.3-0.4,0.6s0.1,0.5,0.3,0.6s0.7,0.2,1.3,0.3c0.7,0.1,1.2,0.2,1.5,0.5
			s0.5,0.6,0.5,1.1c0,0.6-0.2,1-0.7,1.2S506.7,218.6,506.1,218.6z"/>
		<path d="M512.5,218.6c-0.8,0-1.4-0.2-1.8-0.5c-0.4-0.3-0.6-0.9-0.6-1.5v-1.5c0-0.7,0.2-1.2,0.6-1.6c0.4-0.4,1-0.5,1.8-0.5
			c0.7,0,1.2,0.2,1.6,0.5c0.4,0.3,0.6,0.8,0.6,1.4h-0.8c0-0.4-0.2-0.7-0.4-0.9s-0.6-0.3-1-0.3c-0.5,0-0.9,0.1-1.2,0.3
			s-0.4,0.6-0.4,1v1.5c0,0.4,0.1,0.8,0.4,1s0.7,0.3,1.2,0.3s0.8-0.1,1-0.2c0.2-0.2,0.4-0.4,0.4-0.7h0.8c0,0.5-0.3,1-0.6,1.2
			C513.7,218.5,513.2,218.6,512.5,218.6z"/>
	</g>
	<g>
		<path d="M532,218.5V213h0.8v0.9h0.3c0.1-0.3,0.3-0.6,0.6-0.7s0.6-0.2,0.9-0.2c0.4,0,0.7,0.1,1,0.4c0.3,0.3,0.4,0.7,0.4,1.1v0.8
			h-0.7v-0.5c0-0.4-0.1-0.6-0.2-0.8c-0.2-0.2-0.4-0.3-0.7-0.3s-0.6,0.1-0.8,0.2s-0.5,0.4-0.7,0.7v3.9L532,218.5L532,218.5z"/>
		<path d="M542.3,217.3c-0.2,0.4-0.4,0.8-0.7,1s-0.8,0.3-1.5,0.3s-1.3-0.2-1.6-0.5s-0.6-0.9-0.6-1.6V215c0-0.7,0.2-1.2,0.6-1.6
			c0.4-0.3,1-0.5,1.6-0.5c0.7,0,1.2,0.2,1.6,0.5s0.6,0.9,0.6,1.6v0.8h-3.7v0.6c0,0.5,0.1,0.9,0.4,1.1c0.2,0.2,0.6,0.3,1.1,0.3
			s0.8-0.1,1-0.2c0.2-0.1,0.3-0.3,0.4-0.6L542.3,217.3z M538.6,215.1v0.2h2.9v-0.1c0-0.5-0.1-0.9-0.4-1.1c-0.2-0.2-0.6-0.4-1.1-0.4
			s-0.8,0.1-1.1,0.4S538.6,214.6,538.6,215.1z"/>
		<path d="M546.9,218.5H546l-2-5.5h0.9l1.6,4.8l1.6-4.8h0.9L546.9,218.5z"/>
	</g>
	<g>
		<path d="M565.8,218.5v-4.7h-1.6V213h1.6v-0.4c0-0.5,0.2-0.8,0.6-1.1s0.8-0.4,1.4-0.4c0.3,0,0.5,0,0.8,0.1c0.2,0.1,0.4,0.1,0.6,0.2
			l-0.2,0.7c-0.1,0-0.3-0.1-0.5-0.1s-0.4-0.1-0.7-0.1s-0.6,0.1-0.8,0.2c-0.2,0.1-0.3,0.3-0.3,0.5v0.4h2.3v0.7h-2.3v4.7h-0.9V218.5z"
			/>
		<path d="M573,218.6c-0.7,0-1.3-0.2-1.6-0.5c-0.4-0.4-0.6-0.9-0.6-1.5v-1.5c0-0.7,0.2-1.2,0.6-1.6c0.4-0.4,0.9-0.5,1.7-0.5
			c0.7,0,1.3,0.2,1.6,0.5c0.4,0.4,0.6,0.9,0.6,1.5v1.5c0,0.7-0.2,1.2-0.6,1.5S573.8,218.6,573,218.6z M573,217.9
			c0.5,0,0.9-0.1,1.1-0.3c0.2-0.2,0.4-0.5,0.4-1V215c0-0.5-0.1-0.8-0.4-1c-0.2-0.2-0.6-0.3-1.1-0.3s-0.9,0.1-1.1,0.3
			c-0.2,0.2-0.4,0.6-0.4,1v1.5c0,0.4,0.1,0.8,0.4,1C572.2,217.8,572.6,217.9,573,217.9z"/>
		<path d="M579.5,218.6c-0.8,0-1.4-0.2-1.8-0.5c-0.4-0.3-0.6-0.9-0.6-1.5v-1.5c0-0.7,0.2-1.2,0.6-1.6c0.4-0.4,1-0.5,1.8-0.5
			c0.7,0,1.2,0.2,1.6,0.5c0.4,0.3,0.6,0.8,0.6,1.4h-0.8c0-0.4-0.2-0.7-0.4-0.9s-0.6-0.3-1-0.3c-0.5,0-0.9,0.1-1.2,0.3
			s-0.4,0.6-0.4,1v1.5c0,0.4,0.1,0.8,0.4,1s0.7,0.3,1.2,0.3s0.8-0.1,1-0.2c0.2-0.2,0.4-0.4,0.4-0.7h0.8c0,0.5-0.3,1-0.6,1.2
			C580.7,218.5,580.2,218.6,579.5,218.6z"/>
		<path d="M585.4,218.6c-0.5,0-1-0.2-1.3-0.5c-0.3-0.4-0.5-0.8-0.5-1.4V213h0.8v3.5c0,0.4,0.1,0.8,0.3,1s0.5,0.3,0.9,0.3
			c0.3,0,0.6-0.1,0.9-0.2c0.3-0.2,0.6-0.4,0.9-0.8V213h0.8v5.5h-0.8v-0.9h-0.3c-0.1,0.3-0.3,0.5-0.6,0.7
			C586,218.5,585.7,218.6,585.4,218.6z"/>
		<path d="M592.2,218.6c-0.5,0-0.9-0.1-1.3-0.2c-0.4-0.1-0.8-0.4-1.2-0.7l0.4-0.6c0.3,0.2,0.6,0.4,1,0.6c0.4,0.1,0.7,0.2,1.1,0.2
			c0.3,0,0.6-0.1,1-0.1c0.3-0.1,0.5-0.3,0.5-0.7c0-0.3-0.1-0.5-0.4-0.6c-0.2-0.1-0.7-0.2-1.4-0.3s-1.1-0.2-1.5-0.5s-0.5-0.6-0.5-1.1
			s0.2-0.9,0.6-1.2s0.9-0.4,1.4-0.4c0.4,0,0.9,0.1,1.2,0.2c0.4,0.2,0.8,0.4,1.1,0.6l-0.4,0.7c-0.3-0.2-0.6-0.4-0.9-0.6
			c-0.3-0.1-0.7-0.2-1-0.2s-0.6,0.1-0.8,0.2s-0.4,0.3-0.4,0.6s0.1,0.5,0.3,0.6s0.7,0.2,1.3,0.3c0.7,0.1,1.2,0.2,1.5,0.5
			s0.5,0.6,0.5,1.1c0,0.6-0.2,1-0.7,1.2S592.7,218.6,592.2,218.6z"/>
	</g>
	<g>
		<path d="M458.6,159.5v-4.4h-1.5v-1h1.5v-0.3c0-0.5,0.2-1,0.6-1.3s0.9-0.5,1.6-0.5c0.3,0,0.5,0,0.8,0.1c0.2,0,0.5,0.1,0.7,0.2
			l-0.2,1c-0.2-0.1-0.3-0.1-0.5-0.1s-0.4,0-0.6,0c-0.3,0-0.5,0.1-0.7,0.2c-0.2,0.1-0.3,0.3-0.3,0.6v0.3h2.1v1H460v4.4h-1.4V159.5z"
			/>
		<path d="M463.6,159.5v-1h1.7v-3.4h-1.7v-1h3.1v4.4h1.7v1H463.6z M466.1,153.1c-0.3,0-0.5,0-0.7-0.1s-0.3-0.2-0.3-0.5v-0.1
			c0-0.2,0.1-0.4,0.3-0.5s0.4-0.1,0.7-0.1s0.5,0,0.7,0.1s0.3,0.3,0.3,0.5v0.1c0,0.2-0.1,0.4-0.3,0.5S466.4,153.1,466.1,153.1z"/>
		<path d="M470,159.5V154h1.4v1h0.3c0.1-0.3,0.4-0.6,0.7-0.8s0.6-0.3,1-0.3c0.5,0,0.9,0.2,1.2,0.5s0.4,0.7,0.4,1.3v3.8h-1.5V156
			c0-0.3-0.1-0.5-0.2-0.7c-0.1-0.2-0.3-0.2-0.6-0.2c-0.2,0-0.5,0.1-0.7,0.2s-0.5,0.3-0.7,0.6v3.7H470V159.5z"/>
		<path d="M479.6,158.5c-0.2,0.3-0.4,0.6-0.7,0.8s-0.6,0.3-1,0.3c-0.5,0-0.9-0.2-1.2-0.5s-0.4-0.8-0.4-1.4V156
			c0-0.6,0.2-1.2,0.6-1.5c0.4-0.4,1-0.5,1.7-0.5c0.2,0,0.4,0,0.6,0.1c0.2,0,0.4,0.1,0.6,0.2v-2h1.4v7.3h-1.4v-1h-0.2V158.5z
			 M478.5,158.5c0.2,0,0.5-0.1,0.7-0.2c0.2-0.1,0.4-0.3,0.6-0.5v-2.5c-0.2-0.1-0.3-0.2-0.5-0.2s-0.4-0.1-0.6-0.1
			c-0.4,0-0.7,0.1-0.8,0.3c-0.2,0.2-0.3,0.4-0.3,0.8v1.4c0,0.3,0.1,0.6,0.2,0.8C478.1,158.4,478.3,158.5,478.5,158.5z"/>
	</g>
	<g>
		<path d="M630,172.5v-6.2h-2.1v-1.1h5.6v1.1h-2.1v6.2H630z"/>
		<path d="M636.5,170.5l-1.1-3.2l0.1,5.2h-1.2v-7.3h1.5l1.3,3.9l1.2-3.9h1.4v7.3h-1.2l0.1-5.2l-1.1,3.1L636.5,170.5L636.5,170.5z"/>
		<path d="M640.9,172.5v-7.3h5.1v1.1h-3.7v1.7h3.3v1.1h-3.3v2.3h3.7v1.1L640.9,172.5L640.9,172.5z"/>
		<path d="M656.1,169c-0.3,0-0.6-0.1-0.8-0.2c-0.2-0.1-0.3-0.3-0.3-0.6v-0.5c0-0.3,0.1-0.5,0.3-0.6s0.5-0.2,0.8-0.2s0.6,0.1,0.8,0.2
			s0.3,0.4,0.3,0.6v0.5c0,0.3-0.1,0.5-0.3,0.6C656.7,168.9,656.5,169,656.1,169z M656.1,172.6c-0.3,0-0.6-0.1-0.8-0.2
			c-0.2-0.1-0.3-0.3-0.3-0.6v-0.5c0-0.3,0.1-0.5,0.3-0.6s0.5-0.2,0.8-0.2s0.6,0.1,0.8,0.2c0.2,0.1,0.3,0.4,0.3,0.6v0.5
			c0,0.3-0.1,0.5-0.3,0.6C656.7,172.5,656.5,172.6,656.1,172.6z"/>
	</g>
	<g>
		<path d="M628.6,185.5v-7.3h1.4v6.2h3.2v1.1H628.6z"/>
		<path d="M634.5,185.5v-7.3h5.1v1.1h-3.7v1.7h3.3v1.1h-3.3v2.3h3.7v1.1L634.5,185.5L634.5,185.5z"/>
		<path d="M644.2,185.5l-2.1-5.5v5.5h-1.2v-7.3h1.6l2.2,5.7v-5.7h1.2v7.3H644.2z"/>
		<path d="M656.1,182c-0.3,0-0.6-0.1-0.8-0.2c-0.2-0.1-0.3-0.3-0.3-0.6v-0.5c0-0.3,0.1-0.5,0.3-0.6s0.5-0.2,0.8-0.2s0.6,0.1,0.8,0.2
			s0.3,0.4,0.3,0.6v0.5c0,0.3-0.1,0.5-0.3,0.6C656.7,181.9,656.5,182,656.1,182z M656.1,185.6c-0.3,0-0.6-0.1-0.8-0.2
			c-0.2-0.1-0.3-0.3-0.3-0.6v-0.5c0-0.3,0.1-0.5,0.3-0.6s0.5-0.2,0.8-0.2s0.6,0.1,0.8,0.2c0.2,0.1,0.3,0.4,0.3,0.6v0.5
			c0,0.3-0.1,0.5-0.3,0.6C656.7,185.5,656.5,185.6,656.1,185.6z"/>
	</g>
	<g>
		<path d="M628.2,198.5v-7.3h2.7c0.8,0,1.4,0.2,1.8,0.5c0.4,0.3,0.6,0.8,0.6,1.5v0.9c0,0.7-0.2,1.2-0.6,1.5c-0.4,0.3-1,0.5-1.8,0.5
			h-1.4v2.4L628.2,198.5L628.2,198.5z M629.5,195.1h1.3c0.4,0,0.7-0.1,0.9-0.2c0.2-0.1,0.3-0.4,0.3-0.8v-0.8c0-0.4-0.1-0.6-0.3-0.8
			c-0.2-0.1-0.5-0.2-0.9-0.2h-1.3V195.1z"/>
		<path d="M637,198.6c-0.8,0-1.5-0.2-1.9-0.6s-0.7-1-0.7-1.8v-2.5c0-0.8,0.2-1.4,0.7-1.9c0.4-0.4,1.1-0.7,1.9-0.7
			c0.8,0,1.5,0.2,1.9,0.7c0.4,0.4,0.7,1.1,0.7,1.9v2.5c0,0.8-0.2,1.4-0.7,1.8S637.9,198.6,637,198.6z M637,197.5
			c0.4,0,0.8-0.1,0.9-0.3c0.2-0.2,0.3-0.6,0.3-1.1v-2.3c0-0.5-0.1-0.9-0.3-1.2c-0.2-0.2-0.5-0.3-0.9-0.3s-0.8,0.1-0.9,0.3
			c-0.2,0.2-0.3,0.6-0.3,1.2v2.3c0,0.5,0.1,0.9,0.3,1.1C636.3,197.4,636.6,197.5,637,197.5z"/>
		<path d="M643.4,198.6c-0.6,0-1.1-0.1-1.5-0.2c-0.5-0.2-0.9-0.4-1.2-0.7l0.5-1c0.3,0.3,0.6,0.5,1,0.6s0.8,0.2,1.3,0.2
			c0.4,0,0.7-0.1,0.9-0.3s0.3-0.4,0.3-0.7s-0.1-0.5-0.3-0.7c-0.2-0.1-0.6-0.3-1.2-0.5c-0.9-0.2-1.4-0.5-1.8-0.8
			c-0.3-0.3-0.5-0.8-0.5-1.3c0-0.6,0.2-1.1,0.6-1.5c0.4-0.4,1-0.6,1.8-0.6c0.5,0,0.9,0.1,1.4,0.2c0.5,0.2,0.8,0.4,1.1,0.7l-0.5,1
			c-0.3-0.3-0.6-0.5-1-0.6c-0.3-0.1-0.7-0.2-1.1-0.2c-0.3,0-0.6,0.1-0.8,0.2c-0.2,0.1-0.3,0.4-0.3,0.6c0,0.3,0.1,0.5,0.3,0.6
			c0.2,0.2,0.6,0.3,1.3,0.5c0.8,0.2,1.4,0.5,1.7,0.8s0.5,0.8,0.5,1.4c0,0.7-0.2,1.2-0.8,1.6C644.8,198.4,644.2,198.6,643.4,198.6z"
			/>
		<path d="M656.1,195c-0.3,0-0.6-0.1-0.8-0.2c-0.2-0.1-0.3-0.3-0.3-0.6v-0.5c0-0.3,0.1-0.5,0.3-0.6s0.5-0.2,0.8-0.2s0.6,0.1,0.8,0.2
			s0.3,0.4,0.3,0.6v0.5c0,0.3-0.1,0.5-0.3,0.6C656.7,194.9,656.5,195,656.1,195z M656.1,198.6c-0.3,0-0.6-0.1-0.8-0.2
			c-0.2-0.1-0.3-0.3-0.3-0.6v-0.5c0-0.3,0.1-0.5,0.3-0.6s0.5-0.2,0.8-0.2s0.6,0.1,0.8,0.2c0.2,0.1,0.3,0.4,0.3,0.6v0.5
			c0,0.3-0.1,0.5-0.3,0.6C656.7,198.5,656.5,198.6,656.1,198.6z"/>
	</g>
	<g>
		<path d="M743.5,159.5v-1.1h1.9v-4.8h-0.3c-0.2,0.4-0.4,0.7-0.7,0.9s-0.7,0.3-1.1,0.3l-0.1-1.1c0.5,0,0.9-0.1,1.3-0.4
			c0.4-0.2,0.7-0.6,0.9-1h1.3v6.2h1.7v1.1L743.5,159.5L743.5,159.5z"/>
		<path d="M749.5,159.5V158c0-0.6,0.1-1,0.4-1.3c0.3-0.3,0.7-0.6,1.3-0.8l1.1-0.4c0.3-0.1,0.6-0.2,0.7-0.4c0.2-0.1,0.2-0.3,0.2-0.6
			v-0.3c0-0.4-0.1-0.6-0.3-0.8s-0.5-0.2-0.9-0.2s-0.7,0.1-0.8,0.3c-0.2,0.2-0.3,0.5-0.3,1.1l-1.4-0.1c0-0.8,0.3-1.4,0.6-1.8
			s1-0.5,1.8-0.5c0.9,0,1.5,0.2,1.9,0.5s0.6,0.8,0.6,1.5v0.5c0,0.5-0.1,0.9-0.4,1.2c-0.3,0.3-0.7,0.5-1.2,0.7l-1.1,0.4
			c-0.4,0.1-0.6,0.3-0.8,0.4c-0.1,0.1-0.2,0.4-0.2,0.7v0.5h3.8v1.1h-5V159.5z"/>
		<path d="M758.5,159.6c-0.8,0-1.5-0.3-1.9-0.8s-0.7-1.3-0.7-2.3v-1.3c0-1,0.2-1.8,0.7-2.3s1.1-0.8,1.9-0.8c0.8,0,1.5,0.3,1.9,0.8
			s0.7,1.3,0.7,2.3v1.3c0,1-0.2,1.7-0.7,2.3C760,159.3,759.3,159.6,758.5,159.6z M758.5,158.5c0.5,0,0.8-0.2,1-0.5s0.3-0.9,0.3-1.6
			v-1.1c0-0.8-0.1-1.3-0.3-1.7c-0.2-0.3-0.5-0.5-1-0.5s-0.8,0.2-1,0.5s-0.3,0.9-0.3,1.7v1.1c0,0.8,0.1,1.3,0.3,1.6
			C757.7,158.4,758,158.5,758.5,158.5z M758.5,156.6c-0.2,0-0.4,0-0.5-0.1s-0.2-0.2-0.2-0.4v-0.5c0-0.2,0.1-0.3,0.2-0.4
			c0.1-0.1,0.3-0.1,0.5-0.1s0.4,0,0.5,0.1s0.2,0.2,0.2,0.4v0.5c0,0.2-0.1,0.3-0.2,0.4C758.8,156.6,758.7,156.6,758.5,156.6z"/>
	</g>
	<g>
		<path d="M737.2,172.5v-1.1h1.9v-4.8h-0.3c-0.2,0.4-0.4,0.7-0.7,0.9s-0.7,0.3-1.1,0.3l-0.1-1.1c0.5,0,0.9-0.1,1.3-0.4
			c0.4-0.2,0.7-0.6,0.9-1h1.3v6.2h1.7v1.1L737.2,172.5L737.2,172.5z"/>
		<path d="M745.8,172.6c-0.9,0-1.5-0.2-2-0.7c-0.4-0.5-0.6-1.1-0.6-1.9v-2.2c0-0.9,0.2-1.5,0.7-2c0.4-0.4,1.1-0.7,2-0.7
			c0.8,0,1.3,0.1,1.7,0.4s0.6,0.7,0.8,1.4l-1.4,0.2c-0.1-0.4-0.2-0.6-0.3-0.8c-0.1-0.1-0.4-0.2-0.8-0.2c-0.4,0-0.7,0.1-0.9,0.4
			c-0.2,0.2-0.3,0.7-0.3,1.2v0.8h0.1c0.2-0.2,0.4-0.4,0.6-0.5c0.2-0.1,0.6-0.2,1-0.2c0.7,0,1.2,0.2,1.5,0.6c0.4,0.4,0.5,0.9,0.5,1.6
			v0.2c0,0.7-0.2,1.3-0.7,1.7S746.6,172.6,745.8,172.6z M745.8,171.5c0.4,0,0.7-0.1,0.9-0.3s0.3-0.5,0.3-0.9v-0.1
			c0-0.4-0.1-0.7-0.3-1c-0.2-0.2-0.5-0.3-0.9-0.3s-0.7,0.1-0.9,0.3s-0.3,0.5-0.3,1v0.1c0,0.4,0.1,0.7,0.3,0.9
			C745,171.4,745.3,171.5,745.8,171.5z"/>
		<path d="M753.1,172.6c-0.7,0-1.2-0.2-1.6-0.5c-0.4-0.3-0.6-0.8-0.6-1.4v-2.6h-1.4v-1h1.4v-1.8h1.4v1.8h2.2v1h-2.2v2.4
			c0,0.3,0.1,0.6,0.2,0.8c0.2,0.2,0.4,0.2,0.7,0.2c0.2,0,0.4,0,0.6,0c0.2,0,0.4-0.1,0.6-0.1l0.2,1c-0.2,0.1-0.4,0.1-0.6,0.2
			S753.4,172.6,753.1,172.6z"/>
		<path d="M756,172.5v-7.3h1.4v2.8h0.3c0.1-0.3,0.4-0.6,0.6-0.8s0.6-0.3,1-0.3c0.5,0,0.9,0.2,1.2,0.5s0.4,0.7,0.4,1.3v3.8h-1.4V169
			c0-0.3-0.1-0.6-0.2-0.7c-0.1-0.2-0.3-0.3-0.6-0.3c-0.2,0-0.5,0.1-0.7,0.2s-0.5,0.4-0.7,0.6v3.6L756,172.5L756,172.5z"/>
	</g>
	<g>
		<path d="M745.8,185.6c-1,0-1.6-0.2-2-0.5s-0.6-0.9-0.7-1.8l1.4-0.1c0,0.5,0.2,0.9,0.3,1s0.5,0.2,1,0.2s0.8-0.1,1-0.3
			s0.3-0.5,0.3-0.9v-0.3c0-0.4-0.1-0.7-0.3-0.8s-0.5-0.3-0.9-0.3h-2.4v-3.7h4.7v1h-3.3v1.6h1.4c0.7,0,1.3,0.2,1.7,0.5
			s0.6,0.8,0.6,1.5v0.7c0,0.6-0.2,1.1-0.6,1.4C747.3,185.4,746.6,185.6,745.8,185.6z"/>
		<path d="M752.1,185.6c-0.8,0-1.5-0.3-1.9-0.8s-0.7-1.3-0.7-2.3v-1.3c0-1,0.2-1.8,0.7-2.3s1.1-0.8,1.9-0.8c0.8,0,1.5,0.3,1.9,0.8
			s0.7,1.3,0.7,2.3v1.3c0,1-0.2,1.7-0.7,2.3C753.6,185.3,753,185.6,752.1,185.6z M752.1,184.5c0.5,0,0.8-0.2,1-0.5s0.3-0.9,0.3-1.6
			v-1.1c0-0.8-0.1-1.3-0.3-1.7c-0.2-0.3-0.5-0.5-1-0.5s-0.8,0.2-1,0.5s-0.3,0.9-0.3,1.7v1.1c0,0.8,0.1,1.3,0.3,1.6
			C751.3,184.4,751.7,184.5,752.1,184.5z M752.1,182.6c-0.2,0-0.4,0-0.5-0.1s-0.2-0.2-0.2-0.4v-0.5c0-0.2,0.1-0.3,0.2-0.4
			c0.1-0.1,0.3-0.1,0.5-0.1s0.4,0,0.5,0.1s0.2,0.2,0.2,0.4v0.5c0,0.2-0.1,0.3-0.2,0.4C752.5,182.6,752.3,182.6,752.1,182.6z"/>
		<path d="M758.5,185.6c-0.9,0-1.6-0.2-2-0.5c-0.4-0.4-0.6-0.9-0.7-1.6l1.4-0.1c0.1,0.5,0.2,0.8,0.3,0.9c0.2,0.1,0.5,0.2,1,0.2
			s0.8-0.1,1-0.2c0.2-0.2,0.3-0.4,0.3-0.8v-0.2c0-0.4-0.1-0.6-0.3-0.8s-0.5-0.2-0.9-0.2h-1v-1.1h1c0.4,0,0.7-0.1,0.8-0.2
			c0.2-0.1,0.2-0.3,0.2-0.6v-0.3c0-0.3-0.1-0.5-0.2-0.7c-0.2-0.1-0.5-0.2-0.9-0.2s-0.6,0.1-0.8,0.2c-0.2,0.1-0.3,0.4-0.3,0.8
			l-1.4-0.1c0-0.7,0.3-1.2,0.6-1.5c0.4-0.3,1-0.5,1.8-0.5s1.5,0.1,1.9,0.4s0.6,0.8,0.6,1.4v0.2c0,0.4-0.1,0.7-0.4,0.9
			s-0.6,0.4-1,0.4v0.3c0.5,0,0.8,0.2,1.1,0.5s0.4,0.6,0.4,1.1v0.2c0,0.7-0.2,1.2-0.6,1.6C760,185.4,759.4,185.6,758.5,185.6z"/>
	</g>
	<g>
		<path d="M728.6,200.4c-1.2-0.2-2.1-0.8-2.7-1.6c-0.6-0.8-0.9-1.9-0.9-3c0-1.2,0.3-2.2,0.9-3c0.6-0.9,1.5-1.4,2.7-1.6l0.1,0.9
			c-0.9,0.2-1.5,0.7-1.8,1.3s-0.5,1.4-0.5,2.4s0.2,1.7,0.5,2.4c0.3,0.6,0.9,1.1,1.8,1.3L728.6,200.4z"/>
		<path d="M730.8,198.5v-1.1h1.9v-4.8h-0.2c-0.2,0.4-0.4,0.7-0.7,0.9s-0.7,0.3-1.1,0.3l-0.1-1.1c0.5,0,0.9-0.1,1.3-0.4
			c0.4-0.2,0.7-0.6,0.9-1h1.3v6.2h1.7v1.1L730.8,198.5L730.8,198.5z"/>
		<path d="M739.4,198.6c-1,0-1.6-0.2-2-0.5s-0.6-0.9-0.7-1.8l1.4-0.1c0,0.5,0.2,0.9,0.3,1s0.5,0.2,1,0.2s0.8-0.1,1-0.3
			s0.3-0.5,0.3-0.9v-0.3c0-0.4-0.1-0.7-0.3-0.8s-0.5-0.3-0.9-0.3h-2.4v-3.7h4.7v1h-3.3v1.6h1.4c0.7,0,1.3,0.2,1.7,0.5
			s0.6,0.8,0.6,1.5v0.7c0,0.6-0.2,1.1-0.6,1.4C740.9,198.4,740.3,198.6,739.4,198.6z"/>
		<path d="M744.3,200.1l0.7-3.9h2.2l-2,3.9H744.3z"/>
		<path d="M752.1,198.6c-0.8,0-1.5-0.3-1.9-0.8s-0.7-1.3-0.7-2.3v-1.3c0-1,0.2-1.8,0.7-2.3s1.1-0.8,1.9-0.8c0.8,0,1.5,0.3,1.9,0.8
			s0.7,1.3,0.7,2.3v1.3c0,1-0.2,1.7-0.7,2.3C753.6,198.3,753,198.6,752.1,198.6z M752.1,197.5c0.5,0,0.8-0.2,1-0.5s0.3-0.9,0.3-1.6
			v-1.1c0-0.8-0.1-1.3-0.3-1.7c-0.2-0.3-0.5-0.5-1-0.5s-0.8,0.2-1,0.5s-0.3,0.9-0.3,1.7v1.1c0,0.8,0.1,1.3,0.3,1.6
			C751.3,197.4,751.7,197.5,752.1,197.5z M752.1,195.6c-0.2,0-0.4,0-0.5-0.1s-0.2-0.2-0.2-0.4v-0.5c0-0.2,0.1-0.3,0.2-0.4
			c0.1-0.1,0.3-0.1,0.5-0.1s0.4,0,0.5,0.1s0.2,0.2,0.2,0.4v0.5c0,0.2-0.1,0.3-0.2,0.4C752.5,195.6,752.3,195.6,752.1,195.6z"/>
		<path d="M756.5,200.4l-0.1-1c0.9-0.2,1.5-0.7,1.8-1.3s0.5-1.4,0.5-2.3c0-0.9-0.2-1.7-0.5-2.3c-0.3-0.7-0.9-1.1-1.8-1.3l0.1-0.9
			c1.2,0.2,2.1,0.8,2.7,1.6c0.6,0.9,0.9,1.9,0.9,3c0,1.2-0.3,2.2-0.9,3C758.7,199.6,757.8,200.2,756.5,200.4z"/>
	</g>
</g>
<polyline class="st1" points="178,153.5 170,153.5 170,224.5 178,224.5 "/>
<polyline class="st1" points="762,49 762,41 624.5,41 624.5,49 "/>
<polyline class="st1" points="178,230.5 170,230.5 170,277.5 178,277.5 "/>
<polyline class="st1" points="178,283.5 170,283.5 170,536.5 178,536.5 "/>
<g>
	<g>
		<line class="st1" x1="170" y1="189" x2="169" y2="189"/>
		<line class="st2" x1="167" y1="189" x2="125" y2="189"/>
		<line class="st1" x1="124" y1="189" x2="123" y2="189"/>
	</g>
</g>
<g>
	<g>
		<line class="st1" x1="266.5" y1="153.5" x2="265.5" y2="153.5"/>
		<line class="st3" x1="263.5" y1="153.5" x2="180.5" y2="153.5"/>
		<line class="st1" x1="179.5" y1="153.5" x2="178.5" y2="153.5"/>
	</g>
</g>
<g>
	<g>
		<line class="st1" x1="625" y1="50" x2="625" y2="51"/>
		<line class="st3" x1="625" y1="53" x2="625" y2="136"/>
		<line class="st1" x1="625" y1="137" x2="625" y2="138"/>
	</g>
</g>
<g>
	<g>
		<line class="st1" x1="762" y1="50" x2="762" y2="51"/>
		<line class="st3" x1="762" y1="53" x2="762" y2="136"/>
		<line class="st1" x1="762" y1="137" x2="762" y2="138"/>
	</g>
</g>
<g>
	<g>
		<line class="st1" x1="266.5" y1="230.5" x2="265.5" y2="230.5"/>
		<line class="st3" x1="263.5" y1="230.5" x2="180.5" y2="230.5"/>
		<line class="st1" x1="179.5" y1="230.5" x2="178.5" y2="230.5"/>
	</g>
</g>
<g>
	<g>
		<line class="st1" x1="266.5" y1="277.5" x2="265.5" y2="277.5"/>
		<line class="st3" x1="263.5" y1="277.5" x2="180.5" y2="277.5"/>
		<line class="st1" x1="179.5" y1="277.5" x2="178.5" y2="277.5"/>
	</g>
</g>
<g>
	<g>
		<line class="st1" x1="266.5" y1="283.5" x2="265.5" y2="283.5"/>
		<line class="st3" x1="263.5" y1="283.5" x2="180.5" y2="283.5"/>
		<line class="st1" x1="179.5" y1="283.5" x2="178.5" y2="283.5"/>
	</g>
</g>
<g>
	<g>
		<line class="st1" x1="266.5" y1="536.5" x2="265.5" y2="536.5"/>
		<line class="st3" x1="263.5" y1="536.5" x2="180.5" y2="536.5"/>
		<line class="st1" x1="179.5" y1="536.5" x2="178.5" y2="536.5"/>
	</g>
</g>
<g>
	<g>
		<line class="st1" x1="266.5" y1="224.5" x2="265.5" y2="224.5"/>
		<line class="st3" x1="263.5" y1="224.5" x2="180.5" y2="224.5"/>
		<line class="st1" x1="179.5" y1="224.5" x2="178.5" y2="224.5"/>
	</g>
</g>
<g>
	<g>
		<line class="st1" x1="170.5" y1="254" x2="169.5" y2="254"/>
		<line class="st2" x1="167.5" y1="254" x2="125.5" y2="254"/>
		<line class="st1" x1="124.5" y1="254" x2="123.5" y2="254"/>
	</g>
</g>
<g>
	<g>
		<line class="st1" x1="170.5" y1="410" x2="169.5" y2="410"/>
		<line class="st2" x1="167.5" y1="410" x2="125.5" y2="410"/>
		<line class="st1" x1="124.5" y1="410" x2="123.5" y2="410"/>
	</g>
</g>
<g>
	<path d="M47.8,189.1c-1.3,0-2.2-0.3-2.9-0.8c-0.6-0.6-1-1.4-1-2.5v-2.4c0-1.1,0.3-1.9,1-2.5c0.6-0.6,1.6-0.9,2.9-0.9
		c1.1,0,2,0.3,2.6,0.8s0.9,1.3,1,2.2l-1.4,0.1c0-0.6-0.2-1-0.6-1.3c-0.4-0.3-0.9-0.4-1.6-0.4c-0.8,0-1.4,0.2-1.8,0.5
		c-0.4,0.3-0.6,0.9-0.6,1.5v2.4c0,0.7,0.2,1.2,0.6,1.5c0.4,0.3,1,0.5,1.8,0.5c0.7,0,1.2-0.1,1.6-0.4c0.4-0.2,0.6-0.6,0.6-1.1
		l1.4,0.1c-0.1,0.9-0.4,1.6-1,2C49.8,188.9,48.9,189.1,47.8,189.1z"/>
	<path d="M57.8,189.1c-1.2,0-2.1-0.3-2.7-0.9s-0.9-1.4-0.9-2.5v-2.4c0-1.1,0.3-1.9,0.9-2.5s1.5-0.9,2.7-0.9s2.1,0.3,2.7,0.9
		s0.9,1.4,0.9,2.5v2.4c0,1.1-0.3,1.9-0.9,2.5S58.9,189.1,57.8,189.1z M57.8,187.8c0.7,0,1.3-0.2,1.6-0.5s0.5-0.8,0.5-1.5v-2.4
		c0-0.7-0.2-1.2-0.5-1.5c-0.4-0.3-0.9-0.5-1.6-0.5s-1.3,0.2-1.6,0.5c-0.4,0.3-0.5,0.9-0.5,1.5v2.4c0,0.7,0.2,1.2,0.5,1.5
		S57,187.8,57.8,187.8z"/>
	<path d="M64.3,189v-8.7h1.5v1.5h0.4c0.2-0.5,0.5-0.9,1-1.2s1-0.4,1.6-0.4c0.9,0,1.6,0.3,2.1,0.8s0.8,1.3,0.8,2.2v5.9h-1.5v-5.6
		c0-0.6-0.1-1.1-0.4-1.4c-0.3-0.3-0.7-0.5-1.3-0.5c-0.4,0-0.9,0.1-1.3,0.4c-0.5,0.3-0.9,0.6-1.3,1.1v6h-1.6V189z"/>
	<path d="M78.3,189.1c-0.7,0-1.4-0.1-2.1-0.3s-1.3-0.6-1.9-1l0.7-1.1c0.5,0.4,1,0.7,1.6,0.9s1.2,0.3,1.8,0.3c0.5,0,1-0.1,1.4-0.2
		c0.5-0.2,0.7-0.5,0.7-1c0-0.4-0.2-0.7-0.6-0.9s-1.1-0.3-2.1-0.4c-1.1-0.1-1.9-0.4-2.4-0.8c-0.5-0.4-0.8-1-0.8-1.8
		c0-0.9,0.3-1.5,1-2c0.7-0.4,1.4-0.7,2.3-0.7c0.7,0,1.4,0.1,2,0.3s1.2,0.6,1.8,1l-0.7,1.1c-0.4-0.4-0.9-0.6-1.5-0.9
		c-0.5-0.2-1.1-0.3-1.6-0.3s-0.9,0.1-1.3,0.3s-0.6,0.5-0.6,1c0,0.4,0.2,0.7,0.5,0.9c0.4,0.2,1,0.3,2,0.5c1.1,0.1,1.9,0.4,2.5,0.8
		s0.8,1,0.8,1.7c0,0.9-0.4,1.6-1.1,2C80,188.9,79.2,189.1,78.3,189.1z"/>
	<path d="M88.3,189.1c-1.2,0-2.1-0.3-2.7-0.9s-0.9-1.4-0.9-2.5v-2.4c0-1.1,0.3-1.9,0.9-2.5s1.5-0.9,2.7-0.9s2.1,0.3,2.7,0.9
		s0.9,1.4,0.9,2.5v2.4c0,1.1-0.3,1.9-0.9,2.5S89.5,189.1,88.3,189.1z M88.3,187.8c0.7,0,1.3-0.2,1.6-0.5s0.5-0.8,0.5-1.5v-2.4
		c0-0.7-0.2-1.2-0.5-1.5c-0.4-0.3-0.9-0.5-1.6-0.5s-1.3,0.2-1.6,0.5c-0.4,0.3-0.5,0.9-0.5,1.5v2.4c0,0.7,0.2,1.2,0.5,1.5
		S87.6,187.8,88.3,187.8z"/>
	<path d="M94.9,189v-1.3h2.9v-9h-2.9v-1.3h4.4v10.3h2.9v1.3H94.9z"/>
	<path d="M112.3,187.1c-0.3,0.7-0.7,1.3-1.2,1.6s-1.4,0.5-2.5,0.5c-1.2,0-2.1-0.3-2.7-0.8s-1-1.4-1-2.5v-2.3c0-1.1,0.3-2,1-2.5
		s1.6-0.8,2.6-0.8c1.1,0,2,0.3,2.6,0.9c0.7,0.6,1,1.4,1,2.6v1.3h-5.6v0.9c0,0.7,0.2,1.3,0.5,1.6s0.9,0.5,1.6,0.5s1.2-0.1,1.5-0.3
		s0.6-0.5,0.7-0.9L112.3,187.1z M106.5,183.5v0.3h4.4v-0.2c0-0.8-0.2-1.4-0.5-1.7c-0.4-0.4-0.9-0.5-1.6-0.5s-1.3,0.2-1.6,0.5
		C106.7,182.2,106.5,182.8,106.5,183.5z"/>
</g>
<g>
	<path d="M666.7,24.1c-0.7,0-1.4-0.1-2.1-0.3c-0.7-0.2-1.3-0.6-1.9-1l0.7-1.1c0.5,0.4,1,0.7,1.6,0.9s1.2,0.3,1.8,0.3
		c0.5,0,1-0.1,1.4-0.2s0.7-0.5,0.7-1c0-0.4-0.2-0.7-0.6-0.9c-0.4-0.2-1.1-0.3-2.1-0.4c-1.1-0.1-1.9-0.4-2.4-0.8
		c-0.5-0.4-0.8-1-0.8-1.8c0-0.9,0.3-1.5,1-2c0.7-0.4,1.4-0.7,2.3-0.7c0.7,0,1.3,0.1,2,0.3c0.6,0.2,1.2,0.6,1.8,1l-0.7,1.1
		c-0.4-0.4-0.9-0.6-1.5-0.9c-0.5-0.2-1.1-0.3-1.6-0.3s-0.9,0.1-1.3,0.3c-0.4,0.2-0.6,0.5-0.6,1c0,0.4,0.2,0.7,0.5,0.9
		c0.4,0.2,1,0.3,2,0.5c1.1,0.1,1.9,0.4,2.5,0.8s0.8,1,0.8,1.7c0,0.9-0.4,1.6-1.1,2C668.4,23.9,667.6,24.1,666.7,24.1z"/>
	<path d="M678.2,24.1c-1,0-1.7-0.2-2.2-0.7s-0.8-1.2-0.8-2.2v-4.7h-2.5v-1.3h2.5v-2.9h1.5v2.9h3.8v1.3h-3.8V21c0,0.6,0.1,1,0.4,1.3
		s0.7,0.4,1.3,0.4c0.4,0,0.7,0,1-0.1s0.6-0.1,0.9-0.2l0.3,1.3c-0.3,0.1-0.7,0.2-1.1,0.2C679.1,24.1,678.7,24.1,678.2,24.1z"/>
	<path d="M685.7,24.1c-0.7,0-1.4-0.2-2-0.6c-0.6-0.4-0.9-1-0.9-1.9c0-0.8,0.2-1.4,0.8-1.8c0.5-0.4,1.1-0.7,1.8-0.7h3v-1.3
		c0-0.5-0.2-0.8-0.5-1.1s-0.8-0.4-1.4-0.4c-0.6,0-1.1,0.1-1.4,0.3c-0.3,0.2-0.6,0.6-0.7,1.3l-1.3-0.3c0.2-0.8,0.5-1.4,1.1-1.9
		c0.6-0.4,1.3-0.6,2.3-0.6s1.8,0.2,2.4,0.6c0.6,0.4,1,1.1,1,2v3.9c0,0.5,0.1,0.9,0.4,1c0.3,0.1,0.7,0.1,1.3,0.1V24
		c-0.6,0.1-1.2,0-1.7-0.1s-0.8-0.6-0.9-1.4h-0.3c-0.3,0.4-0.7,0.8-1.2,1.1C687,24,686.4,24.1,685.7,24.1z M685.9,22.9
		c0.5,0,1-0.1,1.4-0.3s0.8-0.5,1.1-0.9v-1.4h-2.6c-0.4,0-0.8,0.1-1,0.3c-0.3,0.2-0.4,0.5-0.4,1c0,0.4,0.1,0.7,0.4,1
		C684.9,22.8,685.3,22.9,685.9,22.9z"/>
	<path d="M698.6,24.1c-1,0-1.7-0.2-2.2-0.7s-0.8-1.2-0.8-2.2v-4.7h-2.5v-1.3h2.5v-2.9h1.5v2.9h3.8v1.3h-3.8V21c0,0.6,0.1,1,0.4,1.3
		s0.7,0.4,1.3,0.4c0.4,0,0.7,0,1-0.1s0.6-0.1,0.9-0.2l0.3,1.3c-0.3,0.1-0.7,0.2-1.1,0.2C699.5,24.1,699.1,24.1,698.6,24.1z"/>
	<path d="M706.5,24.1c-0.8,0-1.5-0.3-2-0.8s-0.8-1.3-0.8-2.2v-5.9h1.5v5.6c0,0.6,0.1,1.1,0.4,1.4c0.3,0.3,0.7,0.5,1.3,0.5
		c0.5,0,0.9-0.1,1.3-0.4c0.4-0.2,0.9-0.6,1.3-1.2v-6h1.5V24h-1.5v-1.5h-0.4c-0.2,0.5-0.5,0.9-1,1.2S707.1,24.1,706.5,24.1z"/>
	<path d="M717.6,24.1c-0.7,0-1.4-0.1-2.1-0.3c-0.7-0.2-1.3-0.6-1.9-1l0.7-1.1c0.5,0.4,1,0.7,1.6,0.9s1.2,0.3,1.8,0.3
		c0.5,0,1-0.1,1.4-0.2s0.7-0.5,0.7-1c0-0.4-0.2-0.7-0.6-0.9c-0.4-0.2-1.1-0.3-2.1-0.4c-1.1-0.1-1.9-0.4-2.4-0.8
		c-0.5-0.4-0.8-1-0.8-1.8c0-0.9,0.3-1.5,1-2c0.7-0.4,1.4-0.7,2.3-0.7c0.7,0,1.3,0.1,2,0.3c0.6,0.2,1.2,0.6,1.8,1l-0.7,1.1
		c-0.4-0.4-0.9-0.6-1.5-0.9c-0.5-0.2-1.1-0.3-1.6-0.3s-0.9,0.1-1.3,0.3c-0.4,0.2-0.6,0.5-0.6,1c0,0.4,0.2,0.7,0.5,0.9
		c0.4,0.2,1,0.3,2,0.5c1.1,0.1,1.9,0.4,2.5,0.8s0.8,1,0.8,1.7c0,0.9-0.4,1.6-1.1,2C719.4,23.9,718.5,24.1,717.6,24.1z"/>
</g>
<g>
	<path d="M33.3,256.5c-0.3,0.5-0.6,0.9-1,1.2c-0.4,0.3-0.9,0.4-1.5,0.4c-0.9,0-1.6-0.3-2.1-0.9s-0.7-1.4-0.7-2.4v-2.4
		c0-1.1,0.3-1.9,1-2.5s1.6-0.9,2.8-0.9c0.3,0,0.7,0,1,0.1s0.7,0.2,1,0.3v-3.2h1.5V258h-1.5v-1.5H33.3z M31.2,256.8
		c0.5,0,0.9-0.1,1.4-0.4c0.4-0.3,0.8-0.6,1.3-1.1V251c-0.3-0.2-0.6-0.3-1-0.4c-0.3-0.1-0.7-0.1-1.1-0.1c-0.8,0-1.4,0.2-1.7,0.5
		c-0.4,0.3-0.6,0.9-0.6,1.6v2.3c0,0.6,0.1,1.1,0.4,1.5C30.1,256.6,30.6,256.8,31.2,256.8z"/>
	<path d="M38.1,258v-1.3H41v-6.1h-2.9v-1.3h4.4v7.4h2.9v1.3H38.1z M41.8,247.7c-0.4,0-0.7-0.1-0.9-0.2s-0.3-0.3-0.3-0.7v-0.1
		c0-0.3,0.1-0.6,0.3-0.7s0.5-0.2,0.9-0.2s0.7,0.1,0.9,0.2s0.3,0.3,0.3,0.7v0.1c0,0.3-0.1,0.5-0.3,0.7
		C42.4,247.6,42.1,247.7,41.8,247.7z"/>
	<path d="M52.1,258.1c-0.7,0-1.4-0.1-2.1-0.3c-0.7-0.2-1.3-0.6-1.9-1l0.7-1.1c0.5,0.4,1,0.7,1.6,0.9c0.6,0.2,1.2,0.3,1.8,0.3
		c0.5,0,1-0.1,1.4-0.2c0.5-0.2,0.7-0.5,0.7-1c0-0.4-0.2-0.7-0.6-0.9c-0.4-0.2-1.1-0.3-2.1-0.4c-1.1-0.1-1.9-0.4-2.4-0.8
		s-0.8-1-0.8-1.8c0-0.9,0.3-1.5,1-2c0.7-0.4,1.4-0.7,2.3-0.7c0.7,0,1.4,0.1,2,0.3c0.6,0.2,1.2,0.6,1.8,1l-0.7,1.1
		c-0.4-0.4-0.9-0.6-1.5-0.9c-0.5-0.2-1.1-0.3-1.6-0.3s-0.9,0.1-1.3,0.3c-0.4,0.2-0.6,0.5-0.6,1c0,0.4,0.2,0.7,0.5,0.9
		c0.4,0.2,1,0.3,2,0.5c1.1,0.1,1.9,0.4,2.5,0.8s0.8,1,0.8,1.7c0,0.9-0.4,1.6-1.1,2C53.8,257.9,53,258.1,52.1,258.1z"/>
	<path d="M62,258.1c-0.3,0-0.7,0-1-0.1c-0.4-0.1-0.7-0.2-1-0.3v3.2h-1.5v-11.6H60v1.5h0.4c0.2-0.5,0.6-0.9,1.1-1.2
		c0.5-0.3,1-0.4,1.5-0.4c0.9,0,1.6,0.3,2.1,0.9s0.8,1.4,0.8,2.4v2.4c0,1-0.3,1.8-1,2.4S63.2,258.1,62,258.1z M62,256.9
		c0.8,0,1.4-0.2,1.8-0.5c0.4-0.3,0.5-0.9,0.5-1.6v-2.4c0-0.7-0.1-1.2-0.4-1.5c-0.3-0.3-0.7-0.5-1.3-0.5c-0.5,0-0.9,0.1-1.4,0.4
		c-0.4,0.2-0.8,0.6-1.3,1.2v4.3c0.3,0.2,0.6,0.3,0.9,0.4C61.2,256.8,61.6,256.9,62,256.9z"/>
	<path d="M68.7,258v-1.3h2.9v-9h-2.9v-1.3h4.4v10.3H76v1.3H68.7z"/>
	<path d="M81.3,258.1c-0.7,0-1.4-0.2-2-0.6s-0.9-1-0.9-1.9c0-0.8,0.2-1.4,0.7-1.8s1.1-0.7,1.8-0.7h3v-1.3c0-0.5-0.2-0.8-0.5-1.1
		c-0.3-0.3-0.8-0.4-1.4-0.4s-1.1,0.1-1.4,0.3c-0.3,0.2-0.6,0.6-0.7,1.3l-1.3-0.3c0.2-0.8,0.5-1.4,1.1-1.9c0.6-0.4,1.4-0.6,2.3-0.6
		c1,0,1.8,0.2,2.4,0.6s1,1.1,1,2v3.9c0,0.5,0.1,0.9,0.4,1s0.7,0.1,1.3,0.1v1.3c-0.6,0.1-1.2,0-1.7-0.1s-0.8-0.6-0.9-1.4h-0.3
		c-0.3,0.4-0.7,0.8-1.2,1.1C82.5,258,81.9,258.1,81.3,258.1z M81.5,256.9c0.5,0,1-0.1,1.4-0.3c0.4-0.2,0.8-0.5,1.1-0.9v-1.4h-2.6
		c-0.4,0-0.8,0.1-1,0.3c-0.3,0.2-0.4,0.5-0.4,1c0,0.4,0.1,0.7,0.4,1C80.5,256.8,80.9,256.9,81.5,256.9z"/>
	<path d="M90.1,261c-0.2,0-0.5,0-0.7,0s-0.5-0.1-0.7-0.1l0.2-1.3c0.3,0.1,0.5,0.1,0.7,0.1s0.4,0,0.6,0c0.4,0,0.8-0.1,1.2-0.4
		c0.3-0.3,0.6-0.7,0.8-1.2V258h-0.5l-3.1-8.7h1.6l2.5,7.5l2.4-7.5h1.5l-3.2,9c-0.3,0.9-0.8,1.6-1.3,2.1
		C91.6,260.8,90.9,261,90.1,261z"/>
	<path d="M106.5,256.1c-0.3,0.7-0.7,1.3-1.2,1.6c-0.5,0.3-1.4,0.5-2.5,0.5c-1.2,0-2.1-0.3-2.7-0.8s-1-1.4-1-2.5v-2.3
		c0-1.1,0.3-2,1-2.5s1.6-0.8,2.6-0.8c1.1,0,2,0.3,2.6,0.9c0.7,0.6,1,1.4,1,2.6v1.3h-5.8v0.9c0,0.7,0.2,1.3,0.5,1.6s0.9,0.5,1.6,0.5
		s1.2-0.1,1.5-0.3c0.3-0.2,0.6-0.5,0.7-0.9L106.5,256.1z M100.7,252.5v0.3h4.4v-0.2c0-0.8-0.2-1.4-0.5-1.7c-0.4-0.4-0.9-0.5-1.6-0.5
		s-1.3,0.2-1.6,0.5C100.9,251.2,100.7,251.8,100.7,252.5z"/>
	<path d="M110.1,258v-8.7h1.5v1.5h0.4c0.2-0.6,0.5-1,0.9-1.2s0.9-0.4,1.5-0.4s1.2,0.2,1.6,0.6s0.7,1,0.7,1.8v1.3h-1.4v-0.8
		c0-0.6-0.1-1-0.4-1.2c-0.2-0.3-0.6-0.4-1.1-0.4s-0.9,0.1-1.2,0.3c-0.4,0.2-0.7,0.6-1,1v6.1h-1.5V258z"/>
</g>
<g>
	<path d="M31.7,415.1c-0.7,0-1.4-0.1-2.1-0.3c-0.7-0.2-1.3-0.6-1.9-1l0.7-1.1c0.5,0.4,1,0.7,1.6,0.9c0.6,0.2,1.2,0.3,1.8,0.3
		c0.5,0,1-0.1,1.4-0.2c0.5-0.2,0.7-0.5,0.7-1c0-0.4-0.2-0.7-0.6-0.9c-0.4-0.2-1.1-0.3-2.1-0.4c-1.1-0.1-1.9-0.4-2.4-0.8
		s-0.8-1-0.8-1.8c0-0.9,0.3-1.5,1-2c0.7-0.4,1.4-0.7,2.3-0.7c0.7,0,1.4,0.1,2,0.3c0.6,0.2,1.2,0.6,1.8,1l-0.7,1.2
		c-0.4-0.4-0.9-0.6-1.5-0.9c-0.5-0.2-1.1-0.3-1.6-0.3s-0.9,0.1-1.3,0.3c-0.4,0.2-0.6,0.5-0.6,1c0,0.4,0.2,0.7,0.5,0.9s1,0.3,2,0.5
		c1.1,0.1,1.9,0.4,2.5,0.8s0.8,1,0.8,1.7c0,0.9-0.4,1.6-1.1,2C33.4,414.9,32.6,415.1,31.7,415.1z"/>
	<path d="M45.4,413.1c-0.3,0.7-0.7,1.3-1.2,1.6c-0.5,0.3-1.4,0.5-2.5,0.5c-1.2,0-2.1-0.3-2.7-0.8c-0.6-0.6-1-1.4-1-2.5v-2.3
		c0-1.1,0.3-2,1-2.5s1.6-0.8,2.6-0.8c1.1,0,2,0.3,2.6,0.9c0.7,0.6,1,1.4,1,2.6v1.3h-5.8v0.9c0,0.7,0.2,1.3,0.5,1.6s0.9,0.5,1.6,0.5
		c0.7,0,1.2-0.1,1.5-0.3s0.6-0.5,0.7-0.9L45.4,413.1z M39.6,409.5v0.3H44v-0.2c0-0.8-0.2-1.4-0.5-1.7c-0.4-0.4-0.9-0.5-1.6-0.5
		c-0.7,0-1.3,0.2-1.6,0.5C39.8,408.2,39.6,408.8,39.6,409.5z"/>
	<path d="M54.1,417.9v-4.4h-0.4c-0.3,0.5-0.6,0.9-1,1.2s-0.9,0.4-1.5,0.4c-0.9,0-1.6-0.3-2.1-0.9s-0.7-1.4-0.7-2.5v-2.4
		c0-1.1,0.4-1.9,1.1-2.5c0.7-0.6,1.6-0.9,2.7-0.9c0.6,0,1.3,0.1,1.9,0.2c0.6,0.2,1.2,0.4,1.7,0.7v10.9h-1.7V417.9z M51.5,413.8
		c0.5,0,0.9-0.1,1.4-0.4c0.4-0.2,0.8-0.6,1.3-1.2V408c-0.3-0.2-0.7-0.3-1-0.4s-0.7-0.1-1.1-0.1c-0.6,0-1.2,0.2-1.6,0.5
		c-0.5,0.3-0.7,0.9-0.7,1.6v2.2c0,0.7,0.1,1.2,0.4,1.6C50.5,413.6,50.9,413.8,51.5,413.8z"/>
	<path d="M61.3,415.1c-0.8,0-1.5-0.3-2-0.8s-0.8-1.3-0.8-2.2v-5.9H60v5.6c0,0.6,0.1,1.1,0.4,1.4s0.7,0.5,1.3,0.5
		c0.5,0,0.9-0.1,1.3-0.4c0.4-0.2,0.9-0.6,1.3-1.2v-6h1.5v8.7h-1.5v-1.5h-0.4c-0.2,0.5-0.5,0.9-1,1.2C62.4,415,61.9,415.1,61.3,415.1
		z"/>
	<path d="M76,413.1c-0.3,0.7-0.7,1.3-1.2,1.6c-0.5,0.3-1.4,0.5-2.5,0.5c-1.2,0-2.1-0.3-2.7-0.8c-0.6-0.6-1-1.4-1-2.5v-2.3
		c0-1.1,0.3-2,1-2.5s1.6-0.8,2.6-0.8c1.1,0,2,0.3,2.6,0.9c0.7,0.6,1,1.4,1,2.6v1.3H70v0.9c0,0.7,0.2,1.3,0.5,1.6s0.9,0.5,1.6,0.5
		s1.2-0.1,1.5-0.3s0.6-0.5,0.7-0.9L76,413.1z M70.1,409.5v0.3h4.4v-0.2c0-0.8-0.2-1.4-0.5-1.7c-0.4-0.4-0.9-0.5-1.6-0.5
		s-1.3,0.2-1.6,0.5C70.3,408.2,70.1,408.8,70.1,409.5z"/>
	<path d="M78.9,415v-8.7h1.5v1.5h0.4c0.2-0.5,0.5-0.9,1-1.2c0.5-0.3,1-0.4,1.6-0.4c0.9,0,1.6,0.3,2.1,0.8s0.8,1.3,0.8,2.2v5.9h-1.5
		v-5.6c0-0.6-0.1-1.1-0.4-1.4s-0.7-0.5-1.3-0.5c-0.4,0-0.9,0.1-1.3,0.4c-0.5,0.3-0.9,0.6-1.3,1.1v6L78.9,415L78.9,415z"/>
	<path d="M92.9,415.1c-1.3,0-2.2-0.3-2.9-0.8c-0.6-0.6-1-1.4-1-2.5v-2.4c0-1.1,0.3-1.9,1-2.5c0.6-0.6,1.6-0.9,2.9-0.9
		c1.1,0,2,0.3,2.6,0.8s0.9,1.3,1,2.2l-1.4,0.1c0-0.6-0.2-1-0.6-1.3s-0.9-0.4-1.6-0.4c-0.8,0-1.4,0.2-1.8,0.5s-0.6,0.9-0.6,1.5v2.4
		c0,0.7,0.2,1.2,0.6,1.5s1,0.5,1.8,0.5c0.7,0,1.2-0.1,1.6-0.4c0.4-0.2,0.6-0.6,0.6-1.1l1.4,0.1c-0.1,0.9-0.4,1.6-1,2
		C94.9,414.9,94,415.1,92.9,415.1z"/>
	<path d="M106.5,413.1c-0.3,0.7-0.7,1.3-1.2,1.6c-0.5,0.3-1.4,0.5-2.5,0.5c-1.2,0-2.1-0.3-2.7-0.8c-0.6-0.6-1-1.4-1-2.5v-2.3
		c0-1.1,0.3-2,1-2.5s1.6-0.8,2.6-0.8c1.1,0,2,0.3,2.6,0.9c0.7,0.6,1,1.4,1,2.6v1.3h-5.8v0.9c0,0.7,0.2,1.3,0.5,1.6s0.9,0.5,1.6,0.5
		s1.2-0.1,1.5-0.3s0.6-0.5,0.7-0.9L106.5,413.1z M100.7,409.5v0.3h4.4v-0.2c0-0.8-0.2-1.4-0.5-1.7c-0.4-0.4-0.9-0.5-1.6-0.5
		s-1.3,0.2-1.6,0.5C100.9,408.2,100.7,408.8,100.7,409.5z"/>
	<path d="M110.1,415v-8.7h1.5v1.5h0.4c0.2-0.6,0.5-1,0.9-1.2s0.9-0.4,1.5-0.4s1.2,0.2,1.6,0.6s0.7,1,0.7,1.8v1.3h-1.4v-0.8
		c0-0.6-0.1-1-0.4-1.2c-0.2-0.3-0.6-0.4-1.1-0.4s-0.9,0.1-1.2,0.3c-0.4,0.2-0.7,0.6-1,1v6.1h-1.5V415z"/>
</g>
</svg>
